<?xml version="1.0" encoding="UTF-8"?>
<svg id="Capa_2" data-name="Capa 2" xmlns="http://www.w3.org/2000/svg" viewBox="0 0 209.89 219.24">
  <defs>
    <style>
      .cls-1 {
        fill: #0019f5;
      }

      .cls-2 {
        fill: #fff;
        stroke: #fff;
        stroke-miterlimit: 10;
        stroke-width: 3px;
      }
    </style>
  </defs>
  <g id="Capa_1-2" data-name="Capa 1">
    <g>
      <polygon class="cls-1" points="122.94 57.84 171.18 22.24 149.94 78.31 209.89 77.86 159.76 110.74 208.51 145.61 148.63 142.74 167.58 199.62 120.82 162.09 102.72 219.24 86.95 161.41 38.71 197 59.95 140.94 0 141.38 50.13 108.51 1.38 73.63 61.26 76.5 42.31 19.63 89.07 57.15 107.17 0 122.94 57.84"/>
      <g>
        <g>
          <path class="cls-2" d="M76.81,128.06c-3.83-5.83-5.72-12.6-5.48-19.59,.64-18.54,16.23-33.1,34.77-32.46,5.87,.2,11.6,1.94,16.57,5.02l-.39,.63c-4.85-3.01-10.46-4.71-16.2-4.91-18.13-.62-33.38,13.62-34.01,31.75-.23,6.84,1.62,13.46,5.36,19.16l-.62,.4Z"/>
          <path class="cls-2" d="M122.21,81.2c-.22-1.07,.32-2.55,.88-3.45,.1,1.77,.56,3.57,1.56,5.07-1.76-.37-3.58,0-5.27,.53,.7-.9,1.7-1.89,2.83-2.15Z"/>
        </g>
        <g>
          <path class="cls-2" d="M103.79,143.24c-5.09-.17-9.95-1.45-14.43-3.8l.34-.65c4.38,2.29,9.13,3.55,14.11,3.72,18.13,.62,33.38-13.62,34.01-31.75,.27-7.8-2.25-15.46-7.1-21.56l.58-.46c4.95,6.24,7.53,14.07,7.26,22.05-.64,18.54-16.23,33.1-34.77,32.46Z"/>
          <path class="cls-2" d="M85.73,136.78c2.2,.42,5.12,.62,7.23,.25l-2.9,2.35-.73,3.67c-.66-2.04-2.2-4.52-3.6-6.27Z"/>
        </g>
      </g>
    </g>
  </g>
</svg>