<?xml version="1.0" encoding="UTF-8"?>
<svg id="Capa_2" data-name="Capa 2" xmlns="http://www.w3.org/2000/svg" viewBox="0 0 401.06 188.05">
  <defs>
    <style>
      .cls-1 {
        fill: #0016c1;
      }

      .cls-2 {
        fill: #e86221;
      }

      .cls-3 {
        fill: #cc5118;
      }
    </style>
  </defs>
  <g id="Capa_1-2" data-name="Capa 1">
    <g>
      <g>
        <g>
          <path class="cls-1" d="M69.91,73.17c0,3.89-.89,7.2-2.66,9.92-1.78,2.72-4.95,4.84-9.53,6.36-4.58,1.52-10.94,2.28-19.07,2.28H0c.46-11.11,.69-21.5,.69-31.18s-.23-20.07-.69-31.18H20.18v.09h18.29c7.1,0,12.7,.59,16.79,1.76,4.09,1.17,6.98,2.88,8.67,5.11,1.69,2.23,2.53,5.07,2.53,8.5s-1.22,6.6-3.65,9.32c-2.43,2.72-6.6,4.91-12.5,6.57,13.05,0,19.58,4.15,19.58,12.45ZM20.18,45.09v7.99h16.49c3.55,0,6.03-.31,7.43-.94,1.4-.63,2.1-1.77,2.1-3.44,0-1.32-.73-2.25-2.19-2.79-1.46-.54-3.91-.82-7.34-.82H20.18Zm16.49,30.92c2.98,0,5.25-.13,6.83-.39,1.57-.26,2.71-.72,3.39-1.37,.69-.66,1.03-1.56,1.03-2.71,0-1.49-.82-2.56-2.45-3.22-1.63-.66-4.57-.99-8.8-.99H20.18v8.67h16.49Z"/>
          <path class="cls-1" d="M80.26,37.1c-1.75-1.77-2.62-4.09-2.62-6.96s.87-5.12,2.62-6.96c1.75-1.83,4.42-2.75,8.03-2.75s6.07,.93,7.9,2.79c1.83,1.86,2.75,4.17,2.75,6.91s-.89,5.18-2.66,6.96-4.44,2.66-7.99,2.66-6.28-.89-8.03-2.66Zm-1.93,54.62c.4-9.22,.6-16.83,.6-22.85,0-7.16-.23-15.17-.69-24.05h20.61c-.46,8.53-.69,16.55-.69,24.05,0,6.3,.2,13.91,.6,22.85h-20.44Z"/>
          <path class="cls-1" d="M146.63,76.94v14.78h-4.05c-7.25,0-13.74-2.07-19.11-5.65-3.67,2.26-7.72,4.24-12.05,5.65l-5.84-12.24c2.82-1.04,5.46-2.35,7.81-3.86-4.52-7.15-7.06-16.19-7.06-26.45,0-16.76,8.1-26.36,20.43-26.36s19.49,8.57,19.49,23.34c0,10.54-3.86,20.71-10.64,29.09,2.35,1.04,4.99,1.69,7.81,1.69h3.2Zm-24.57-28.8c0,5.84,1.13,11.3,3.2,15.81,3.39-5.27,5.27-11.39,5.27-17.7,0-5.74-1.51-8.66-4.05-8.66-2.73,0-4.42,3.2-4.42,10.54Z"/>
          <path class="cls-1" d="M200.06,47.45c3.01,2.32,5.34,5.38,7,9.19,1.66,3.81,2.49,7.86,2.49,12.15s-.83,8.35-2.49,11.98c-1.66,3.64-3.98,6.51-6.96,8.63-2.98,2.12-6.33,3.18-10.05,3.18-4.35,0-8.13-.93-11.34-2.79-3.21-1.86-5.61-4.79-7.21-8.8l-2.49,10.74h-16.49c.34-10.76,.52-21.9,.52-33.41s-.17-22.76-.52-33.41h19.41l-.26,10.56c-.29,7.44-.43,14.09-.43,19.93,1.55-3.89,3.91-6.77,7.09-8.63,3.18-1.86,7-2.79,11.47-2.79,3.84,0,7.26,1.16,10.26,3.48Zm-12.5,27.96c1.6-1.83,2.4-4.21,2.4-7.13,0-2.63-.87-4.77-2.62-6.4-1.75-1.63-3.91-2.45-6.48-2.45-1.32,0-2.69,.3-4.12,.9-1.43,.6-2.66,1.58-3.69,2.92-1.03,1.35-1.55,3.02-1.55,5.02,0,3.55,.8,6.08,2.4,7.6,1.6,1.52,3.98,2.28,7.13,2.28,2.75,0,4.92-.92,6.53-2.75Z"/>
          <path class="cls-1" d="M271.47,77.47c0,1.95,.23,3.32,.69,4.12,.46,.8,1.37,1.37,2.75,1.72l-.34,8.07c-1.83,.29-3.42,.49-4.77,.6-1.35,.11-3.13,.17-5.37,.17-4.92,0-8.19-1.1-9.79-3.31-1.6-2.2-2.4-5.02-2.4-8.46v-2.15c-1.66,4.7-4.08,8.19-7.26,10.48-3.18,2.29-7.23,3.44-12.15,3.44-5.73,0-10.04-1.14-12.93-3.44-2.89-2.29-4.34-5.7-4.34-10.22,0-3.72,1.23-6.64,3.69-8.76,2.46-2.12,6.27-3.58,11.42-4.38-4.35-3.09-8.7-5.78-13.05-8.07,3.44-4.35,7.36-7.66,11.77-9.92,4.41-2.26,9.76-3.39,16.06-3.39,8.82,0,15.36,1.9,19.63,5.71,4.26,3.81,6.4,9.66,6.4,17.56v10.22Zm-31.95-16.92c-2.23,.97-4.24,2.43-6.01,4.38,3.44-.4,7.73-.6,12.88-.6,2.12,0,3.61-.26,4.47-.77,.86-.52,1.29-1.17,1.29-1.98,0-.69-.43-1.27-1.29-1.76-.86-.49-2.06-.73-3.61-.73-2.92,0-5.5,.49-7.73,1.46Zm7.39,15.76c2.58-1.23,4.35-2.85,5.33-4.85v-2.23c-1.37,.69-2.89,1.22-4.55,1.59-1.66,.37-3.67,.73-6.01,1.07l-3.09,.52c-3.21,.63-4.81,1.72-4.81,3.26,0,1.66,1.49,2.49,4.47,2.49,3.21,0,6.1-.61,8.67-1.85Z"/>
          <path class="cls-1" d="M286.11,85.84c-4.61-4.49-6.91-10.41-6.91-17.74s2.3-12.97,6.91-17.44c4.61-4.47,11.81-6.7,21.6-6.7,6.58,0,12.1,1.07,16.53,3.22,4.44,2.15,7.72,5.04,9.83,8.67,2.12,3.64,3.18,7.72,3.18,12.24,0,7.39-2.45,13.31-7.34,17.78-4.9,4.47-12.3,6.7-22.2,6.7s-16.99-2.25-21.6-6.74Zm30.28-10.52c1.83-1.77,2.75-4.15,2.75-7.13,0-2.8-.92-5.11-2.75-6.91-1.83-1.8-4.61-2.71-8.33-2.71s-6.44,.89-8.16,2.66c-1.72,1.78-2.58,4.09-2.58,6.96s.86,5.35,2.58,7.13c1.72,1.78,4.44,2.66,8.16,2.66s6.5-.89,8.33-2.66Z"/>
        </g>
        <g>
          <path class="cls-2" d="M107.89,167.59v19.24h-5.51c-13.48,0-20.34-6.49-20.34-19.48v-15.44c0-5.88-3.68-9.8-9.31-9.8-6.13,0-10.29,4.04-10.29,10.05v34.68h-19.85v-34.92c0-5.88-3.68-9.8-9.31-9.8-6.13,0-10.41,4.04-10.41,10.05v34.68H3v-62.49H22.85v6c4.41-4.9,10.17-7.47,17.03-7.47,8.7,0,15.56,3.8,19.36,10.17,4.9-6.62,11.76-10.17,20.22-10.17,13.48,0,22.42,9.07,22.42,23.04v17.03c0,3.06,1.72,4.66,4.66,4.66h1.35Z"/>
          <path class="cls-2" d="M122.28,178.44c-6.58-6.41-9.86-14.84-9.86-25.3s3.29-18.5,9.86-24.87c6.57-6.37,16.85-9.56,30.81-9.56,9.39,0,17.25,1.53,23.58,4.59,6.33,3.06,11.01,7.19,14.03,12.37,3.02,5.19,4.53,11.01,4.53,17.46,0,10.54-3.49,18.99-10.48,25.36-6.98,6.37-17.54,9.56-31.67,9.56s-24.24-3.2-30.81-9.62Zm43.19-15.01c2.61-2.53,3.92-5.92,3.92-10.17,0-4-1.31-7.29-3.92-9.86-2.62-2.57-6.58-3.86-11.88-3.86s-9.19,1.27-11.64,3.8c-2.45,2.53-3.68,5.84-3.68,9.92s1.23,7.64,3.68,10.17c2.45,2.53,6.33,3.8,11.64,3.8s9.27-1.27,11.88-3.8Z"/>
          <path class="cls-2" d="M212.45,178.44c-6.58-6.41-9.86-14.84-9.86-25.3s3.29-18.5,9.86-24.87c6.57-6.37,16.85-9.56,30.81-9.56,9.39,0,17.25,1.53,23.58,4.59,6.33,3.06,11.01,7.19,14.03,12.37,3.02,5.19,4.53,11.01,4.53,17.46,0,10.54-3.49,18.99-10.48,25.36-6.98,6.37-17.54,9.56-31.67,9.56s-24.24-3.2-30.81-9.62Zm43.19-15.01c2.61-2.53,3.92-5.92,3.92-10.17,0-4-1.31-7.29-3.92-9.86-2.62-2.57-6.58-3.86-11.88-3.86s-9.19,1.27-11.64,3.8c-2.45,2.53-3.68,5.84-3.68,9.92s1.23,7.64,3.68,10.17c2.45,2.53,6.33,3.8,11.64,3.8s9.27-1.27,11.88-3.8Z"/>
          <path class="cls-2" d="M373.38,139.17c0,16.42,.25,32.31,.73,47.66h-27.69l.37-14.7c-2.37,5.47-5.8,9.5-10.29,12.07-4.49,2.57-9.8,3.86-15.93,3.86-5.31,0-10.09-1.51-14.34-4.53-4.25-3.02-7.56-7.13-9.92-12.31-2.37-5.19-3.55-10.88-3.55-17.09s1.18-11.9,3.55-17.34c2.37-5.43,5.7-9.8,9.99-13.11,4.29-3.31,9.17-4.96,14.64-4.96,6.37,0,11.82,1.33,16.36,3.98,4.53,2.66,7.9,6.76,10.11,12.31,0-4.66-.16-12.13-.49-22.42-.33-9.96-.49-16.99-.49-21.07h27.69c-.49,15.19-.73,31.08-.73,47.66Zm-30.14,24.93c2.53-2.25,3.8-5.82,3.8-10.72,0-4.33-1.27-7.51-3.8-9.56-2.53-2.04-5.72-3.06-9.56-3.06s-6.76,1.16-9.25,3.49c-2.49,2.33-3.74,5.37-3.74,9.13,0,4.17,1.14,7.56,3.43,10.17,2.29,2.62,5.39,3.92,9.31,3.92s7.27-1.12,9.8-3.37Z"/>
        </g>
      </g>
      <g>
        <path class="cls-3" d="M290.6,15.34c1.25-1.2,2.34-1.81,3.25-1.84,.92-.03,1.76,.36,2.53,1.17,.53,.55,.88,1.12,1.06,1.69,.18,.57,.12,1.2-.16,1.89-.28,.69-.85,1.44-1.72,2.27l-1.96,1.88,1.59,1.66-2.32,2.22c-1.12-1.27-2.19-2.44-3.21-3.5-1.02-1.06-2.14-2.18-3.36-3.35l2.32-2.22h0s1.96-1.87,1.96-1.87Zm2.56,3.99c.52-.5,.89-.9,1.12-1.19,.22-.29,.33-.54,.34-.75,0-.21-.1-.41-.3-.62-.2-.21-.4-.32-.59-.33-.2,0-.44,.09-.74,.3-.3,.21-.71,.57-1.25,1.09l-1.3,1.25,1.43,1.49,1.3-1.25Z"/>
        <path class="cls-3" d="M304.24,13.19c.71,1.08,1.24,1.87,1.57,2.34l-2.58,1.69-.8-1.24c-.88-1.36-1.55-2.41-2.04-3.15-.46-.7-1.12-1.68-1.98-2.96l-.79-1.17,2.58-1.7c.66,1.04,1.21,1.89,1.64,2.55,.48,.73,.84,1.26,1.07,1.61,.28,.44,.72,1.11,1.31,2.02Z"/>
        <path class="cls-3" d="M315.33,8.41c.12,.27,.24,.45,.35,.53,.11,.08,.28,.11,.49,.07l.45,1.14c-.24,.15-.45,.28-.63,.38-.18,.1-.43,.22-.74,.35-.68,.3-1.21,.35-1.57,.14-.36-.21-.64-.55-.86-1.03l-.13-.3c.06,.76-.06,1.39-.36,1.91-.3,.51-.79,.92-1.48,1.23-.8,.35-1.47,.46-2.01,.32s-.95-.52-1.23-1.15c-.23-.52-.24-1-.03-1.45s.65-.88,1.32-1.31c-.8-.16-1.57-.27-2.31-.32,.21-.82,.55-1.52,1.03-2.1,.47-.59,1.15-1.07,2.03-1.46,1.23-.54,2.25-.68,3.08-.42,.83,.27,1.49,.95,1.97,2.05l.63,1.42Zm-5.49-.38c-.25,.27-.44,.6-.57,.98,.45-.27,1.04-.56,1.76-.88,.29-.13,.49-.26,.57-.38,.09-.12,.11-.24,.06-.35-.04-.1-.14-.15-.29-.17-.15-.01-.33,.03-.55,.12-.41,.18-.73,.41-.98,.68Zm2,1.74c.28-.33,.43-.66,.44-1l-.14-.31c-.15,.18-.33,.35-.54,.5-.21,.15-.46,.33-.77,.52l-.4,.26c-.41,.29-.56,.54-.47,.75,.1,.23,.36,.25,.77,.07,.45-.2,.81-.46,1.09-.79Z"/>
        <path class="cls-3" d="M324.43,8.28c-.22-1.26-.44-2.42-.66-3.48-.08-.38-.24-.65-.47-.84-.23-.18-.49-.24-.77-.18-.28,.06-.49,.24-.63,.53-.14,.29-.18,.66-.12,1.1,.12,.65,.21,1.11,.27,1.39,.12,.58,.28,1.21,.46,1.89l-3.05,.65c-.19-1.24-.41-2.41-.64-3.5-.23-1.09-.52-2.25-.85-3.48,.57-.09,1-.17,1.3-.24,.31-.07,.74-.17,1.28-.31l.77,1.8c.05-.72,.25-1.29,.6-1.71,.35-.42,.8-.69,1.35-.8,.51-.11,.98-.09,1.4,.05,.42,.15,.77,.39,1.05,.73,.27,.34,.46,.75,.56,1.23l.4,1.84c.24,1.13,.46,2.04,.65,2.71l-2.87,.62Z"/>
        <path class="cls-3" d="M337.33,3.98l-4.26,.03c.07,.38,.25,.69,.52,.93,.28,.24,.67,.35,1.17,.35,.37,0,.71-.08,1.03-.22,.32-.15,.58-.35,.77-.61,.59,.28,1.36,.59,2.33,.91-.27,.61-.75,1.1-1.46,1.47-.71,.37-1.63,.55-2.77,.56-1.48,.01-2.58-.32-3.29-1-.72-.68-1.08-1.58-1.09-2.69,0-1.09,.34-1.98,1.04-2.66,.7-.68,1.8-1.03,3.29-1.04,.89,0,1.66,.14,2.32,.43,.66,.29,1.16,.7,1.51,1.22,.35,.52,.53,1.13,.54,1.81,0,.23,0,.4-.02,.51h-1.62Zm-3.59-1.74c-.28,.17-.47,.4-.58,.68l3.08-.02c-.11-.28-.28-.5-.51-.67-.24-.17-.54-.25-.92-.25-.44,0-.79,.09-1.07,.26Z"/>
        <path class="cls-3" d="M344.02,7.77c-.7-.35-1.33-.79-1.9-1.34l1.71-1.56c.34,.36,.77,.68,1.29,.95,.52,.27,.99,.45,1.39,.53,.38,.08,.69,.08,.92,.02,.23-.06,.36-.18,.4-.35,.03-.14,0-.25-.09-.35-.09-.1-.22-.16-.4-.2-.11-.02-.24-.04-.38-.06-.14-.02-.26-.03-.35-.04-.45-.04-.92-.1-1.39-.2-.76-.15-1.35-.42-1.76-.8-.42-.38-.56-.9-.43-1.55,.15-.75,.62-1.26,1.42-1.53,.79-.27,1.88-.27,3.25,0,.67,.14,1.34,.37,1.98,.7,.65,.33,1.2,.74,1.65,1.23l-1.77,1.19c-.44-.35-.85-.63-1.25-.82-.4-.19-.82-.33-1.24-.42-.3-.06-.57-.05-.8,.02s-.37,.19-.4,.35c-.02,.12,0,.22,.08,.31,.08,.09,.19,.15,.33,.17,.15,.03,.35,.06,.61,.08,.63,.08,1.1,.16,1.41,.22,.89,.18,1.54,.47,1.97,.86,.43,.4,.58,.9,.45,1.52-.19,.92-.68,1.52-1.48,1.79-.8,.27-1.83,.28-3.1,.02-.72-.15-1.43-.39-2.12-.74Z"/>
        <path class="cls-3" d="M366.15,14.03c-.14,.26-.21,.46-.21,.6,0,.14,.08,.28,.24,.43l-.63,1.05c-.27-.1-.49-.18-.68-.27-.19-.08-.43-.21-.73-.37-.66-.36-1.01-.74-1.07-1.15-.05-.41,.04-.85,.29-1.31l.16-.29c-.56,.51-1.14,.8-1.73,.87-.59,.08-1.21-.07-1.87-.43-.76-.42-1.26-.88-1.48-1.4-.22-.52-.17-1.08,.16-1.68,.27-.5,.65-.8,1.13-.9,.48-.1,1.1-.02,1.85,.25-.36-.73-.74-1.41-1.16-2.03,.78-.33,1.54-.49,2.29-.47,.75,.02,1.55,.26,2.39,.72,1.18,.64,1.91,1.37,2.21,2.19,.29,.82,.15,1.76-.42,2.81l-.74,1.37Zm-3.2-1.94c.43,.02,.79-.06,1.06-.26l.16-.3c-.23,0-.47-.05-.72-.12-.25-.07-.54-.17-.88-.29l-.45-.16c-.48-.15-.77-.12-.88,.09-.12,.22,.02,.44,.42,.66,.43,.23,.86,.36,1.29,.39Zm.16-2.64c-.37-.03-.74,.02-1.12,.15,.49,.2,1.08,.48,1.77,.86,.28,.15,.5,.23,.65,.22,.15,0,.26-.06,.31-.17,.05-.09,.04-.2-.04-.33-.08-.13-.22-.25-.43-.36-.39-.21-.77-.33-1.14-.37Z"/>
        <path class="cls-3" d="M378.7,28.29c.89-.71,1.8-1.47,2.7-2.29,.29-.26,.45-.54,.49-.83s-.06-.56-.27-.8c-.2-.22-.47-.32-.8-.31-.34,.02-.69,.19-1.06,.52h0c-1.15,1.02-1.94,1.77-2.39,2.23l-1.97-2.19c.99-.82,1.88-1.59,2.69-2.31,.28-.26,.45-.53,.49-.82,.04-.29-.03-.54-.22-.76-.21-.23-.47-.33-.8-.31-.33,.02-.67,.16-1.02,.44-.5,.43-.86,.74-1.07,.92-.44,.4-.91,.84-1.41,1.34l-2.09-2.32c.98-.79,1.88-1.55,2.71-2.3,.83-.75,1.69-1.57,2.59-2.47,.36,.45,.65,.78,.85,1.01,.21,.24,.52,.56,.91,.95l-1.18,1.58c.66-.32,1.26-.43,1.8-.33,.54,.1,1,.36,1.38,.78,.45,.5,.69,1.04,.7,1.61,.01,.57-.17,1.1-.55,1.58,.59-.26,1.19-.34,1.77-.24,.59,.1,1.08,.38,1.48,.83,.52,.58,.74,1.22,.64,1.9-.09,.68-.48,1.33-1.16,1.94l-1.61,1.45c-.73,.66-1.26,1.14-1.58,1.45l-2.04-2.26Z"/>
        <path class="cls-3" d="M388.42,37.98l-1.97-3.78c-.31,.24-.51,.54-.59,.89-.09,.35-.01,.76,.22,1.2,.17,.32,.39,.6,.67,.82,.28,.22,.57,.35,.9,.4,.01,.65,.1,1.48,.25,2.49-.67,.04-1.32-.17-1.97-.63-.65-.46-1.24-1.2-1.76-2.21-.68-1.31-.89-2.44-.61-3.39,.28-.95,.91-1.68,1.9-2.19,.97-.5,1.91-.6,2.84-.29,.93,.31,1.74,1.13,2.42,2.45,.41,.79,.64,1.54,.68,2.26,.04,.72-.09,1.35-.4,1.9-.31,.55-.76,.99-1.36,1.3-.2,.1-.36,.18-.46,.21l-.75-1.44Zm-.08-4c-.28-.17-.57-.24-.87-.21l1.42,2.73c.2-.22,.32-.48,.36-.76,.04-.29-.02-.6-.2-.93-.2-.39-.44-.67-.72-.84Z"/>
        <path class="cls-3" d="M394.55,50.57c-1.69,.47-3.31,.95-4.88,1.44l-.79-2.85,1.52-.38c-.63-.09-1.14-.33-1.53-.71-.39-.39-.68-.9-.85-1.53-.15-.55-.13-1.08,.06-1.6,.19-.52,.52-.98,.98-1.37,.46-.39,1.02-.68,1.65-.85,.63-.18,1.26-.22,1.88-.13,.63,.09,1.17,.31,1.63,.65,.46,.35,.77,.8,.93,1.36,.18,.66,.2,1.25,.06,1.79-.14,.54-.47,1.01-.98,1.39,.48-.13,1.24-.36,2.29-.69,1.02-.32,1.73-.54,2.15-.65l.79,2.85c-1.58,.38-3.22,.81-4.92,1.28Zm-3.42-2.39c.3,.2,.71,.22,1.21,.08,.44-.12,.74-.34,.87-.66,.14-.32,.15-.67,.04-1.07-.1-.38-.31-.66-.62-.85-.31-.19-.66-.23-1.05-.12-.43,.12-.74,.33-.95,.64s-.25,.67-.14,1.07c.11,.41,.32,.71,.63,.91Z"/>
        <path class="cls-3" d="M390.1,55.46c1.4-.09,2.56-.18,3.47-.27,1.08-.11,2.29-.28,3.63-.49l.33,3.12c-1.3,.07-2.52,.16-3.65,.28-.95,.1-2.1,.25-3.45,.46l-.33-3.09Zm8.3-.58c.24-.29,.58-.46,1.01-.51,.42-.04,.79,.05,1.09,.29,.3,.23,.49,.62,.54,1.17,.05,.52-.04,.93-.3,1.24-.25,.31-.59,.48-1,.53-.43,.05-.8-.05-1.09-.29-.3-.24-.47-.63-.53-1.17-.06-.55,.04-.96,.27-1.26Z"/>
        <path class="cls-3" d="M395.28,70.7c-1.75-.11-3.44-.18-5.08-.23l.18-2.95,1.56,.13c-.57-.29-.97-.68-1.22-1.17-.24-.49-.35-1.07-.31-1.72,.03-.56,.23-1.06,.57-1.5,.35-.43,.81-.76,1.38-.98,.57-.22,1.18-.31,1.84-.27,.65,.04,1.26,.2,1.82,.49,.56,.29,1.01,.67,1.33,1.15,.32,.48,.47,1.01,.43,1.59-.04,.68-.22,1.25-.53,1.72-.31,.47-.77,.8-1.38,1,.5,.03,1.29,.06,2.39,.09,1.06,.03,1.81,.06,2.25,.08l-.18,2.95c-1.61-.15-3.3-.28-5.07-.39Zm-2.46-3.37c.22,.28,.6,.44,1.12,.47,.46,.03,.81-.09,1.04-.34,.23-.26,.36-.59,.39-1,.02-.39-.08-.73-.31-1.01-.23-.28-.55-.43-.95-.46-.44-.03-.81,.07-1.11,.3-.29,.23-.45,.55-.48,.97-.03,.43,.07,.78,.29,1.06Z"/>
        <path class="cls-3" d="M389.53,82.21c-.29-.08-.5-.1-.63-.07-.14,.03-.26,.15-.36,.33l-1.17-.38c.03-.28,.07-.52,.11-.72,.04-.2,.1-.47,.2-.79,.2-.72,.5-1.16,.88-1.3,.39-.14,.83-.15,1.34,0l.31,.09c-.62-.44-1.03-.93-1.24-1.49-.21-.56-.21-1.2,0-1.92,.23-.84,.58-1.42,1.03-1.75,.45-.33,1.01-.4,1.67-.22,.55,.15,.92,.45,1.13,.9,.21,.45,.27,1.07,.18,1.85,.63-.51,1.2-1.04,1.72-1.58,.5,.68,.82,1.39,.97,2.13,.15,.74,.1,1.57-.16,2.49-.36,1.29-.91,2.17-1.64,2.64-.73,.47-1.68,.54-2.84,.22l-1.5-.42Zm1.17-3.55c.07,.43,.24,.75,.49,.98l.33,.09c-.04-.23-.06-.47-.05-.73,.01-.26,.04-.57,.09-.92l.05-.47c.04-.5-.06-.78-.28-.84-.24-.07-.43,.12-.55,.55-.13,.47-.16,.92-.08,1.35Zm2.61-.44c-.05-.37-.18-.72-.4-1.06-.08,.52-.23,1.16-.44,1.91-.09,.31-.11,.54-.07,.69,.04,.15,.12,.24,.24,.27,.1,.03,.2-.01,.31-.12,.11-.11,.19-.27,.25-.5,.12-.43,.15-.83,.1-1.19Z"/>
      </g>
    </g>
  </g>
</svg>