<?xml version="1.0" encoding="utf-8"?>
<!-- Generator: Adobe Illustrator 27.0.0, SVG Export Plug-In . SVG Version: 6.00 Build 0)  -->
<svg version="1.1" id="Capa_2_00000016036667437724854910000017394307519325648314_"
	 xmlns="http://www.w3.org/2000/svg" xmlns:xlink="http://www.w3.org/1999/xlink" x="0px" y="0px" viewBox="0 0 118.2 65.7"
	 style="enable-background:new 0 0 118.2 65.7;" xml:space="preserve">
<style type="text/css">
	.st0{enable-background:new    ;}
</style>
<g id="Capa_1-2">
	<g>
		<g class="st0">
			<path d="M22.7,18.8c0,1.2-0.3,2.2-0.8,3.1c-0.5,0.8-1.5,1.5-2.9,2s-3.4,0.7-5.9,0.7H1.1c0.1-3.4,0.2-6.6,0.2-9.6S1.3,8.7,1.1,5.3
				h6.2v0H13c2.2,0,3.9,0.2,5.2,0.5c1.3,0.4,2.2,0.9,2.7,1.6c0.5,0.7,0.8,1.6,0.8,2.6c0,1.1-0.4,2-1.1,2.9c-0.8,0.8-2,1.5-3.9,2
				C20.7,15,22.7,16.3,22.7,18.8z M7.3,10.2v2.5h5.1c1.1,0,1.9-0.1,2.3-0.3c0.4-0.2,0.7-0.5,0.7-1.1c0-0.4-0.2-0.7-0.7-0.9
				s-1.2-0.3-2.3-0.3H7.3z M12.4,19.7c0.9,0,1.6,0,2.1-0.1c0.5-0.1,0.8-0.2,1-0.4c0.2-0.2,0.3-0.5,0.3-0.8c0-0.5-0.3-0.8-0.8-1
				c-0.5-0.2-1.4-0.3-2.7-0.3H7.3v2.7H12.4z"/>
			<path d="M25.9,7.7c-0.5-0.5-0.8-1.3-0.8-2.1c0-0.9,0.3-1.6,0.8-2.1s1.4-0.8,2.5-0.8c1.1,0,1.9,0.3,2.4,0.9
				c0.6,0.6,0.8,1.3,0.8,2.1c0,0.9-0.3,1.6-0.8,2.1c-0.5,0.5-1.4,0.8-2.5,0.8C27.3,8.5,26.5,8.2,25.9,7.7z M25.3,24.6
				c0.1-2.8,0.2-5.2,0.2-7.1c0-2.2-0.1-4.7-0.2-7.4h6.4c-0.1,2.6-0.2,5.1-0.2,7.4c0,1.9,0.1,4.3,0.2,7.1H25.3z"/>
		</g>
		<g class="st0">
			<path d="M46.2,20.5v4.1H45c-2.2,0-4.2-0.7-5.9-1.8c-1.1,0.8-2.4,1.4-3.7,1.8l-1.6-3.4c0.9-0.3,1.8-0.8,2.6-1.3
				c-1.5-2.2-2.3-5.1-2.3-8.4c0-5.2,2.4-8.1,6-8.1c3.5,0,5.8,2.6,5.8,7.2c0,3.4-1.2,6.7-3.5,9.3c0.8,0.5,1.8,0.7,2.8,0.7H46.2z
				 M38.4,11.1c0,2.1,0.4,4,1.2,5.5c1.2-1.8,1.9-3.9,1.9-6.1c0-2-0.6-3.1-1.5-3.1C39.1,7.4,38.4,8.6,38.4,11.1z"/>
		</g>
		<g class="st0">
			<path d="M62.9,10.9c0.9,0.7,1.6,1.7,2.2,2.8c0.5,1.2,0.8,2.4,0.8,3.8c0,1.3-0.3,2.6-0.8,3.7c-0.5,1.1-1.2,2-2.2,2.7
				c-0.9,0.7-2,1-3.1,1c-1.3,0-2.5-0.3-3.5-0.9c-1-0.6-1.7-1.5-2.2-2.7l-0.8,3.3h-5.1c0.1-3.3,0.2-6.8,0.2-10.3
				c0-3.6-0.1-7-0.2-10.3h6l-0.1,3.3c-0.1,2.3-0.1,4.4-0.1,6.2c0.5-1.2,1.2-2.1,2.2-2.7c1-0.6,2.2-0.9,3.5-0.9
				C60.9,9.8,62,10.2,62.9,10.9z M59.1,19.5c0.5-0.6,0.7-1.3,0.7-2.2c0-0.8-0.3-1.5-0.8-2c-0.5-0.5-1.2-0.8-2-0.8
				c-0.4,0-0.8,0.1-1.3,0.3c-0.4,0.2-0.8,0.5-1.1,0.9c-0.3,0.4-0.5,0.9-0.5,1.6c0,1.1,0.2,1.9,0.7,2.3c0.5,0.5,1.2,0.7,2.2,0.7
				C57.9,20.4,58.6,20.1,59.1,19.5z"/>
			<path d="M85,20.2c0,0.6,0.1,1,0.2,1.3c0.1,0.2,0.4,0.4,0.8,0.5L86,24.5c-0.6,0.1-1.1,0.2-1.5,0.2c-0.4,0-1,0.1-1.7,0.1
				c-1.5,0-2.5-0.3-3-1c-0.5-0.7-0.7-1.6-0.7-2.6v-0.7c-0.5,1.5-1.3,2.5-2.2,3.2c-1,0.7-2.2,1.1-3.8,1.1c-1.8,0-3.1-0.4-4-1.1
				s-1.3-1.8-1.3-3.2c0-1.2,0.4-2.1,1.1-2.7c0.8-0.7,1.9-1.1,3.5-1.4c-1.3-1-2.7-1.8-4-2.5c1.1-1.3,2.3-2.4,3.6-3.1c1.4-0.7,3-1,5-1
				c2.7,0,4.7,0.6,6.1,1.8c1.3,1.2,2,3,2,5.4V20.2z M75.1,14.9c-0.7,0.3-1.3,0.8-1.9,1.4c1.1-0.1,2.4-0.2,4-0.2
				c0.7,0,1.1-0.1,1.4-0.2c0.3-0.2,0.4-0.4,0.4-0.6c0-0.2-0.1-0.4-0.4-0.5s-0.6-0.2-1.1-0.2C76.6,14.5,75.8,14.6,75.1,14.9z
				 M77.4,19.8c0.8-0.4,1.3-0.9,1.6-1.5v-0.7c-0.4,0.2-0.9,0.4-1.4,0.5c-0.5,0.1-1.1,0.2-1.9,0.3l-1,0.2c-1,0.2-1.5,0.5-1.5,1
				c0,0.5,0.5,0.8,1.4,0.8C75.7,20.4,76.6,20.2,77.4,19.8z"/>
			<path d="M89.5,22.8c-1.4-1.4-2.1-3.2-2.1-5.5c0-2.2,0.7-4,2.1-5.4c1.4-1.4,3.6-2.1,6.7-2.1c2,0,3.7,0.3,5.1,1
				c1.4,0.7,2.4,1.6,3,2.7c0.7,1.1,1,2.4,1,3.8c0,2.3-0.8,4.1-2.3,5.5s-3.8,2.1-6.9,2.1C93.2,24.8,90.9,24.2,89.5,22.8z M98.9,19.5
				c0.6-0.5,0.8-1.3,0.8-2.2c0-0.9-0.3-1.6-0.8-2.1c-0.6-0.6-1.4-0.8-2.6-0.8c-1.2,0-2,0.3-2.5,0.8c-0.5,0.5-0.8,1.3-0.8,2.2
				c0,0.9,0.3,1.7,0.8,2.2c0.5,0.5,1.4,0.8,2.5,0.8C97.5,20.3,98.3,20.1,98.9,19.5z"/>
		</g>
		<g class="st0">
			<path d="M34.6,48.6V54h-1.6c-3.9,0-5.9-1.9-5.9-5.7V43c0-2.1-1.3-3.5-3.3-3.5c-2.2,0-3.6,1.4-3.6,3.6V54h-5.5V43
				c0-2.1-1.3-3.5-3.3-3.5c-2.2,0-3.6,1.4-3.6,3.6V54H2.2V34.7h5.5v2c1.4-1.6,3.3-2.5,5.5-2.5c2.8,0,4.9,1.2,6.1,3.3
				c1.5-2.2,3.7-3.3,6.4-3.3c4.2,0,7,2.8,7,7.2v5.7c0,1,0.6,1.6,1.6,1.6H34.6z"/>
		</g>
		<g class="st0">
			<path d="M38.9,51.4c-2-2-3-4.6-3-7.8c0-3.2,1-5.7,3-7.7c2-2,5.2-3,9.5-3c2.9,0,5.3,0.5,7.3,1.4c2,0.9,3.4,2.2,4.3,3.8
				c0.9,1.6,1.4,3.4,1.4,5.4c0,3.3-1.1,5.9-3.2,7.8s-5.4,3-9.8,3C44.1,54.3,40.9,53.3,38.9,51.4z M52.2,46.7
				c0.8-0.8,1.2-1.8,1.2-3.1c0-1.2-0.4-2.3-1.2-3c-0.8-0.8-2-1.2-3.7-1.2c-1.6,0-2.8,0.4-3.6,1.2c-0.8,0.8-1.1,1.8-1.1,3.1
				c0,1.3,0.4,2.4,1.1,3.1c0.8,0.8,2,1.2,3.6,1.2C50.2,47.9,51.4,47.5,52.2,46.7z"/>
			<path d="M66.8,51.4c-2-2-3-4.6-3-7.8c0-3.2,1-5.7,3-7.7c2-2,5.2-3,9.5-3c2.9,0,5.3,0.5,7.3,1.4c2,0.9,3.4,2.2,4.3,3.8
				c0.9,1.6,1.4,3.4,1.4,5.4c0,3.3-1.1,5.9-3.2,7.8s-5.4,3-9.8,3C72,54.3,68.8,53.3,66.8,51.4z M80.1,46.7c0.8-0.8,1.2-1.8,1.2-3.1
				c0-1.2-0.4-2.3-1.2-3c-0.8-0.8-2-1.2-3.7-1.2s-2.8,0.4-3.6,1.2c-0.8,0.8-1.1,1.8-1.1,3.1c0,1.3,0.4,2.4,1.1,3.1
				c0.8,0.8,2,1.2,3.6,1.2S79.3,47.5,80.1,46.7z"/>
			<path d="M116.5,39.2c0,5.1,0.1,10,0.2,14.7h-8.6l0.1-4.5c-0.7,1.7-1.8,2.9-3.2,3.7c-1.4,0.8-3,1.2-4.9,1.2
				c-1.6,0-3.1-0.5-4.4-1.4c-1.3-0.9-2.3-2.2-3.1-3.8c-0.7-1.6-1.1-3.4-1.1-5.3c0-1.9,0.4-3.7,1.1-5.4c0.7-1.7,1.8-3,3.1-4.1
				c1.3-1,2.8-1.5,4.5-1.5c2,0,3.7,0.4,5.1,1.2c1.4,0.8,2.4,2.1,3.1,3.8c0-1.4-0.1-3.7-0.2-6.9c-0.1-3.1-0.2-5.2-0.2-6.5h8.6
				C116.6,29.2,116.5,34.1,116.5,39.2z M107.2,46.9c0.8-0.7,1.2-1.8,1.2-3.3c0-1.3-0.4-2.3-1.2-3c-0.8-0.6-1.8-0.9-3-0.9
				c-1.1,0-2.1,0.4-2.9,1.1c-0.8,0.7-1.2,1.7-1.2,2.8c0,1.3,0.4,2.3,1.1,3.1c0.7,0.8,1.7,1.2,2.9,1.2
				C105.4,48,106.4,47.6,107.2,46.9z"/>
		</g>
	</g>
</g>
</svg>
