<?xml version="1.0" encoding="utf-8"?>
<!-- Generator: Adobe Illustrator 27.0.0, SVG Export Plug-In . SVG Version: 6.00 Build 0)  -->
<svg version="1.1" id="Capa_2_00000121246873940295690890000009457723701824249732_"
	 xmlns="http://www.w3.org/2000/svg" xmlns:xlink="http://www.w3.org/1999/xlink" x="0px" y="0px" viewBox="0 0 309.6 115.1"
	 style="enable-background:new 0 0 309.6 115.1;" xml:space="preserve">
<style type="text/css">
	.st0{fill:#FF5D2C;}
	.st1{enable-background:new    ;}
</style>
<g id="Capa_1-2">
	<g>
		
			<ellipse transform="matrix(0.9652 -0.2615 0.2615 0.9652 -9.6577 42.4815)" class="st0" cx="154.8" cy="57.5" rx="160" ry="40.9"/>
		<g class="st1">
			<path d="M52.9,90.9l1.6,5.6l-1.8,0.5c-4.2,1.2-7.6,0.4-10.4-2.3l-3.7-3.4l-2.1,0.6l2.6,9l-5.9,1.7l-7.5-26.3l11.7-3.4
				c5.2-1.5,10.2,1.1,11.7,6.2c1.1,3.9-0.5,7.7-3.8,9.8l1.9,1.5c1.3,1,2.8,1.3,4.5,0.8L52.9,90.9z M35.1,86.7l5.7-1.6
				c1.8-0.5,2.8-2.3,2.3-4.2c-0.5-1.9-2.3-2.9-4.2-2.4l-5.7,1.6L35.1,86.7z"/>
		</g>
		<g class="st1">
			<path d="M74.8,82L60,86.3c1.2,2,3.3,2.9,5.7,2.2c1.8-0.5,3.1-1.7,3.6-3l5.9-1.7c-0.3,4.3-3.4,8.2-8.2,9.5
				c-6,1.7-11.8-1.4-13.4-7.2c-1.7-5.8,1.6-11.5,7.6-13.2c5.9-1.7,11.7,1.3,13.4,7.2C74.6,80.7,74.8,81.5,74.8,82z M59,82.5l9-2.6
				c-1.2-2-3.4-2.8-5.5-2.2C60.3,78.4,59,80.2,59,82.5z"/>
		</g>
		<g class="st1">
			<path d="M93.7,79.3l1.5,5.4l-1.5,0.4c-2.9,0.8-5.8,0.7-8.4-0.2c-1.2,1.4-2.6,2.7-4.1,3.8l-3.4-3.8c1-0.8,2-1.7,2.8-2.7
				c-2.8-2.4-4.9-5.9-6.2-10.2c-1.9-6.8,0.1-11.5,4.9-12.9c4.6-1.3,8.6,1.3,10.3,7.2c1.3,4.4,0.9,9.2-1,13.5
				c1.3,0.3,2.6,0.3,3.9-0.1L93.7,79.3z M80.1,69.9c0.8,2.7,2,5,3.6,6.8c0.9-2.8,1-5.9,0.2-8.8c-0.7-2.6-1.9-3.8-3.1-3.4
				C79.5,64.9,79.1,66.6,80.1,69.9z"/>
		</g>
		<g class="st1">
			<path d="M118.5,72.2l1.5,5.4l-1.6,0.4c-2.7,0.8-4.8,0.4-6.2-1.3c-0.9,2.4-2.8,4.3-5.5,5.1c-5.3,1.5-10.6-1.7-12.3-7.5
				c-1.7-5.8,1.1-11.3,6.4-12.9c2.4-0.7,4.7-0.3,6.6,0.9l-0.6-2.1l5.6-1.6l3.6,12.5c0.3,1,1,1.4,2,1.1L118.5,72.2z M109.7,70
				c-0.8-2.7-3.4-4.2-6.1-3.4c-2.7,0.8-4.1,3.4-3.3,6.2c0.8,2.7,3.4,4.2,6.1,3.4C109.1,75.4,110.5,72.8,109.7,70z"/>
		</g>
		<g class="st1">
			<path d="M140.8,65.8l1.5,5.4l-1.9,0.5c-3.5,1-6.2,0.4-9.3-2.4l-1.3-1.1l-2.2,7.1l-6.7,1.9l4-11.7l-9.4-7.8l6.7-1.9l5.4,4.7
				l2.1-6.8l6.7-1.9l-3.9,11.5l2.6,1.9c1.3,1.1,2.8,1.3,4.4,0.9L140.8,65.8z"/>
			<path d="M137.1,45.3c-0.6-1.9,0.5-3.8,2.5-4.4c2-0.6,3.9,0.5,4.4,2.4c0.6,2-0.5,3.9-2.5,4.4C139.6,48.3,137.7,47.3,137.1,45.3z
				 M139.4,51l5.6-1.6l5.6,19.4l-5.6,1.6L139.4,51z"/>
		</g>
		<g class="st1">
			<path d="M174.7,56.1l1.5,5.4l-1.6,0.4c-3.9,1.1-6.5-0.2-7.6-4l-1.4-4.9c-0.7-2.4-2.6-3.5-4.8-2.8c-2.4,0.7-3.6,2.7-2.9,5.1
				l3,10.5l-5.6,1.6L149.9,48l5.6-1.6l0.6,2.1c1-2.1,2.8-3.6,5.2-4.3c4.5-1.3,8.3,0.8,9.5,5.3l1.6,5.6c0.3,1,1,1.4,2,1.1L174.7,56.1
				z"/>
		</g>
		<g class="st1">
			<path d="M193.1,35.6l5,17.3c1.7,5.9-1.2,10.9-7.2,12.7c-5,1.4-9.3-0.2-11.7-4.1l5.8-1.7c1,0.9,2.7,1.2,4.5,0.6
				c2.7-0.8,3.9-3.2,3.1-6l-0.2-0.6c-1,2-2.7,3.5-5.1,4.2c-5.4,1.5-10.6-1.6-12.2-7.2s1.2-11,6.5-12.5c2.4-0.7,4.7-0.3,6.6,0.9
				l-0.6-2.1L193.1,35.6z M190.2,46.6c-0.8-2.7-3.4-4.2-6.1-3.4c-2.7,0.8-4.2,3.5-3.4,6.2c0.8,2.7,3.4,4.2,6.1,3.4
				C189.6,51.9,191,49.3,190.2,46.6z"/>
			<path d="M207.4,42c-1.7-5.8,1.6-11.5,7.6-13.2c5.2-1.5,10.3,0.7,12.6,5.2l-5.9,1.7c-1.2-1.4-3.2-2.1-5.1-1.5
				c-2.7,0.8-4.2,3.4-3.4,6.2c0.8,2.7,3.4,4.2,6.1,3.4c1.9-0.6,3.3-2.1,3.6-4l5.9-1.7c0.5,5-2.7,9.6-7.9,11.1
				C214.8,50.9,209.1,47.8,207.4,42z"/>
			<path d="M252.5,33.7l1.5,5.4l-1.6,0.4c-2.7,0.8-4.8,0.4-6.2-1.3c-0.8,2.5-2.6,4.3-5.2,5c-4.3,1.2-8-0.8-9.3-5.3l-3.6-12.6
				l5.6-1.6l3.1,10.9c0.6,2.2,2.4,3.2,4.5,2.6c2.2-0.6,3.3-2.6,2.7-4.8L241,21.8l5.6-1.6l3.6,12.5c0.3,1,1,1.4,2,1.1L252.5,33.7z"/>
			<path d="M274.9,22.6c1.7,5.8-1.1,11.3-6.5,12.9c-2.4,0.7-4.7,0.3-6.6-0.9l2.7,9.4l-5.6,1.6l-7.7-26.7l5.6-1.6l0.6,2.2
				c1-2.1,2.7-3.6,5.1-4.3C268,13.6,273.2,16.8,274.9,22.6z M269.2,24.2c-0.8-2.7-3.4-4.2-6.1-3.4s-4.2,3.4-3.4,6.2
				c0.8,2.7,3.4,4.2,6.1,3.4C268.6,29.6,270,27,269.2,24.2z"/>
		</g>
	</g>
</g>
</svg>
