<?xml version="1.0" encoding="utf-8"?>
<!-- Generator: Adobe Illustrator 27.0.0, SVG Export Plug-In . SVG Version: 6.00 Build 0)  -->
<svg version="1.1" id="Capa_2_00000013895710600152315370000004575095469543559073_"
	 xmlns="http://www.w3.org/2000/svg" xmlns:xlink="http://www.w3.org/1999/xlink" x="0px" y="0px" viewBox="0 0 279.4 109.4"
	 style="enable-background:new 0 0 279.4 109.4;" xml:space="preserve">
<style type="text/css">
	.st0{fill:#0016C1;}
	.st1{enable-background:new    ;}
	.st2{fill:#45AB65;}
</style>
<g id="Capa_1-2">
	<ellipse transform="matrix(0.9652 -0.2615 0.2615 0.9652 -9.4398 38.4344)" class="st0" cx="139.7" cy="54.7" rx="144.3" ry="41"/>
	<g class="st1">
		<path class="st2" d="M55.3,82.9l1.3,4.7L55.3,88c-3.4,1-5.7-0.2-6.6-3.5l-1.3-4.6c-0.5-1.8-2-2.7-3.8-2.2c-1.9,0.5-2.8,2.2-2.3,4
			l2.7,9.6l-4.9,1.4L36.3,83c-0.5-1.8-2-2.7-3.8-2.2c-1.9,0.5-2.8,2.2-2.3,4l2.7,9.6l-4.9,1.4l-4.9-17l4.9-1.4l0.5,1.8
			c0.8-1.8,2.2-3,4.2-3.6c2.4-0.7,4.6-0.1,6.2,1.4c0.7-2.3,2.4-3.9,4.8-4.5c3.7-1.1,6.9,0.7,8,4.5l1.4,5c0.2,0.9,0.9,1.2,1.8,1
			L55.3,82.9z"/>
	</g>
	<g class="st1">
		<path class="st2" d="M74,75.1l-13,3.7c1.1,1.7,2.9,2.5,5,1.9c1.6-0.5,2.7-1.5,3.1-2.6l5.2-1.5c-0.3,3.8-3,7.1-7.2,8.3
			c-5.3,1.5-10.3-1.2-11.7-6.3c-1.5-5.1,1.4-10,6.6-11.5c5.2-1.5,10.2,1.2,11.7,6.3C73.9,74,74,74.7,74,75.1z M60.2,75.6l7.9-2.3
			c-1-1.7-2.9-2.4-4.8-1.9C61.3,72,60.2,73.6,60.2,75.6z"/>
	</g>
	<g class="st1">
		<path class="st2" d="M97.7,70.7l1.3,4.7l-1.3,0.4c-2.6,0.7-5,0.6-7.3-0.2c-1,1.2-2.2,2.3-3.6,3.3l-3-3.4c0.9-0.7,1.8-1.5,2.5-2.4
			c-2.4-2.1-4.3-5.1-5.4-8.9C79.2,58.4,81,54.2,85.1,53c4-1.1,7.5,1.1,9,6.3c1.1,3.9,0.8,8.1-0.9,11.8c1.1,0.3,2.3,0.2,3.4-0.1
			L97.7,70.7z M85.8,62.5c0.7,2.4,1.8,4.4,3.1,5.9c0.8-2.5,0.9-5.1,0.2-7.7c-0.6-2.3-1.6-3.3-2.7-3C85.3,58.1,84.9,59.6,85.8,62.5z"
			/>
	</g>
	<g class="st1">
		<path class="st2" d="M98.3,66.4c-1.5-5.1,1.4-10,6.6-11.5c5.2-1.5,10.3,1.2,11.7,6.3c1.5,5.1-1.4,10-6.6,11.5
			C104.8,74.2,99.8,71.5,98.3,66.4z M111.6,62.6c-0.7-2.4-3-3.7-5.4-3c-2.4,0.7-3.6,3-3,5.4c0.7,2.4,3,3.7,5.4,3
			C111.1,67.3,112.3,65,111.6,62.6z"/>
		<path class="st2" d="M125.8,58.5c-1.5-5.1,1.4-10,6.6-11.5c4.6-1.3,9,0.6,11,4.5l-5.2,1.5c-1.1-1.2-2.8-1.8-4.5-1.3
			c-2.4,0.7-3.6,3-3,5.4c0.7,2.4,3,3.7,5.4,3c1.7-0.5,2.9-1.9,3.1-3.5l5.2-1.5c0.4,4.3-2.4,8.4-6.9,9.7
			C132.3,66.3,127.2,63.6,125.8,58.5z"/>
		<path class="st2" d="M145.7,52.8c-1.5-5.1,1.4-10,6.6-11.5c5.2-1.5,10.3,1.2,11.7,6.3c1.5,5.1-1.4,10-6.6,11.5
			C152.1,60.6,147.1,57.9,145.7,52.8z M159,49c-0.7-2.4-3-3.7-5.4-3c-2.4,0.7-3.6,3-3,5.4c0.7,2.4,3,3.7,5.4,3
			C158.4,53.7,159.7,51.4,159,49z"/>
	</g>
	<g class="st1">
		<path class="st2" d="M195.8,42.6l1.3,4.7l-1.4,0.4c-3.4,1-5.7-0.2-6.6-3.5l-1.3-4.6c-0.5-1.8-2-2.7-3.8-2.2
			c-1.9,0.5-2.8,2.2-2.3,4l2.7,9.6l-4.9,1.4l-2.8-9.6c-0.5-1.8-2-2.7-3.8-2.2c-1.9,0.5-2.8,2.2-2.3,4l2.7,9.6l-4.9,1.4l-4.9-17
			l4.9-1.4l0.5,1.8c0.8-1.8,2.2-3,4.2-3.6c2.4-0.7,4.6-0.1,6.2,1.4c0.7-2.3,2.4-3.9,4.8-4.5c3.7-1.1,6.9,0.7,8,4.5l1.4,5
			c0.2,0.9,0.9,1.2,1.8,1L195.8,42.6z"/>
	</g>
	<g class="st1">
		<path class="st2" d="M195.9,38.4c-1.5-5.1,1.4-10,6.6-11.5c5.2-1.5,10.3,1.2,11.7,6.3c1.5,5.1-1.4,10-6.6,11.5
			C202.3,46.2,197.3,43.5,195.9,38.4z M209.2,34.6c-0.7-2.4-3-3.7-5.4-3s-3.6,3-3,5.4c0.7,2.4,3,3.7,5.4,3
			C208.6,39.3,209.9,37,209.2,34.6z"/>
	</g>
	<g class="st1">
		<path class="st2" d="M229.3,24.4l1.8,6.2c0.3,1.2,1.3,1.7,2.5,1.3l1.7-0.5l1.3,4.4l-2.4,0.7c-4.1,1.2-6.7-0.1-7.7-3.8l-2-7
			l-2.6,0.7l-1.3-4.4l1.4-0.4c0.9-0.3,1.3-0.9,1-1.8l-0.9-3.1l4.6-1.3L228,20l3.7-1.1l1.3,4.4L229.3,24.4z"/>
	</g>
	<g class="st1">
		<path class="st2" d="M236.1,26.9c-1.5-5.1,1.4-10,6.6-11.5c5.2-1.5,10.3,1.2,11.7,6.3c1.5,5.1-1.4,10-6.6,11.5
			C242.6,34.6,237.5,31.9,236.1,26.9z M241.4,8.9l6.1-1.8l-2.9,6.2l-5.1,1.5L241.4,8.9z M249.4,23c-0.7-2.4-3-3.7-5.4-3
			c-2.4,0.7-3.6,3-3,5.4c0.7,2.4,3,3.7,5.4,3C248.8,27.8,250.1,25.4,249.4,23z"/>
	</g>
</g>
</svg>
