<?xml version="1.0" encoding="utf-8"?>
<!-- Generator: Adobe Illustrator 27.0.0, SVG Export Plug-In . SVG Version: 6.00 Build 0)  -->
<svg version="1.1" id="Capa_2_00000052801508133097082660000004673311714762867374_"
	 xmlns="http://www.w3.org/2000/svg" xmlns:xlink="http://www.w3.org/1999/xlink" x="0px" y="0px" viewBox="0 0 291.9 116.1"
	 style="enable-background:new 0 0 291.9 116.1;" xml:space="preserve">
<style type="text/css">
	.st0{fill:#E8BCDE;}
	.st1{enable-background:new    ;}
</style>
<g id="Capa_1-2">
	
		<ellipse transform="matrix(0.9652 -0.2615 0.2615 0.9652 -10.0981 40.1851)" class="st0" cx="145.9" cy="58" rx="150.7" ry="44.1"/>
	<g class="st1">
		<path d="M46.2,69.9l6.6,23l-5.2,1.5L34,83l4,14l-5.2,1.5l-6.6-23l5.2-1.5l13.6,11.3l-4-14L46.2,69.9z"/>
		<path d="M50,69.7c-0.5-1.7,0.4-3.3,2.1-3.8c1.7-0.5,3.4,0.4,3.9,2.1c0.5,1.7-0.4,3.4-2.2,3.9C52.2,72.3,50.5,71.4,50,69.7z
			 M52.1,74.7l4.9-1.4l4.9,17l-4.9,1.4L52.1,74.7z"/>
	</g>
	<g class="st1">
		<path d="M82.9,79.1l1.3,4.7l-1.4,0.4c-3.4,1-5.7-0.2-6.6-3.5L75,76.4c-0.6-2.1-2.3-3-4.2-2.5c-2.1,0.6-3.1,2.4-2.5,4.5l2.6,9.2
			L66,89l-6.9-24l4.9-1.4l2.6,9c0.8-1.9,2.4-3.3,4.5-3.9c3.9-1.1,7.2,0.7,8.3,4.6l1.4,4.9c0.2,0.9,0.9,1.2,1.8,1L82.9,79.1z"/>
	</g>
	<g class="st1">
		<path d="M79.6,61.2c-0.5-1.7,0.4-3.3,2.1-3.8c1.7-0.5,3.4,0.4,3.9,2.1c0.5,1.7-0.4,3.4-2.2,3.9C81.7,63.8,80.1,62.9,79.6,61.2z
			 M81.6,66.2l4.9-1.4l4.9,17l-4.9,1.4L81.6,66.2z"/>
		<path d="M107.1,72.2l1.3,4.7l-1.3,0.4c-2.6,0.7-5,0.6-7.3-0.2c-1,1.2-2.2,2.3-3.6,3.3l-3-3.4c0.9-0.7,1.8-1.5,2.5-2.4
			c-2.4-2.1-4.3-5.1-5.4-8.9c-1.7-5.9,0.1-10.1,4.3-11.3c4-1.1,7.5,1.1,9,6.3c1.1,3.9,0.8,8.1-0.9,11.8c1.1,0.3,2.3,0.2,3.4-0.1
			L107.1,72.2z M95.2,63.9c0.7,2.4,1.8,4.4,3.1,5.9c0.8-2.5,0.9-5.1,0.2-7.7c-0.6-2.3-1.6-3.3-2.7-3C94.7,59.5,94.4,61,95.2,63.9z"
			/>
	</g>
	<g class="st1">
		<path d="M105.1,53.9c-0.5-1.7,0.4-3.3,2.1-3.8c1.7-0.5,3.4,0.4,3.9,2.1c0.5,1.7-0.4,3.4-2.2,3.9C107.2,56.5,105.6,55.6,105.1,53.9
			z M107.1,58.9l4.9-1.4l4.9,17l-4.9,1.4L107.1,58.9z"/>
	</g>
	<g class="st1">
		<path d="M135.7,61.9c1.2,4.1-0.6,7.7-5.1,9c-2.6,0.7-5,0.4-7-0.7l-0.2,2.3l-5,1.4l2.2-19l5.6-1.6
			C127.9,57.6,133.9,55.7,135.7,61.9z M130.7,63.2c-0.6-2.1-3.7-2-5.9-3.9l-0.7,6.4c1.1,0.9,2.7,1.2,4.2,0.7
			C130.1,66,131.1,64.7,130.7,63.2z"/>
	</g>
	<g class="st1">
		<path d="M141.9,53.7l1.8,6.2c0.3,1.2,1.3,1.7,2.5,1.3l1.7-0.5l1.3,4.4l-2.4,0.7c-4.1,1.2-6.7-0.1-7.7-3.8l-2-7l-2.6,0.7l-1.3-4.4
			l1.4-0.4c0.9-0.3,1.3-0.9,1-1.8l-0.9-3.1l4.6-1.3l1.3,4.5l3.7-1.1l1.3,4.4L141.9,53.7z"/>
	</g>
	<g class="st1">
		<path d="M169.7,54.2l1.3,4.7l-1.4,0.4c-2.4,0.7-4.2,0.3-5.4-1.1c-0.8,2.1-2.4,3.8-4.8,4.5c-4.7,1.3-9.3-1.5-10.7-6.5
			c-1.5-5.1,1-9.9,5.6-11.2c2.1-0.6,4.1-0.2,5.8,0.8l-0.5-1.9l4.9-1.4l3.1,10.9c0.2,0.9,0.9,1.2,1.8,1L169.7,54.2z M162.1,52.3
			c-0.7-2.4-3-3.7-5.4-3c-2.4,0.7-3.6,3-2.9,5.4c0.7,2.4,3,3.7,5.3,3C161.5,57,162.8,54.7,162.1,52.3z"/>
	</g>
	<g class="st1">
		<path d="M183.3,41.8l1.8,6.2c0.3,1.2,1.3,1.7,2.5,1.3l1.7-0.5l1.3,4.4l-2.4,0.7c-4.1,1.2-6.7-0.1-7.7-3.8l-2-7l-2.6,0.7l-1.3-4.4
			l1.4-0.4c0.9-0.3,1.3-0.9,1-1.8l-0.9-3.1l4.6-1.3l1.3,4.5l3.7-1.1l1.3,4.4L183.3,41.8z"/>
	</g>
	<g class="st1">
		<path d="M190.2,44.2c-1.5-5.1,1.4-10,6.6-11.5c5.2-1.5,10.3,1.2,11.7,6.3c1.5,5.1-1.4,10-6.6,11.5C196.6,52,191.6,49.3,190.2,44.2
			z M203.5,40.4c-0.7-2.4-3-3.7-5.4-3c-2.4,0.7-3.6,3-3,5.4c0.7,2.4,3,3.7,5.4,3C202.9,45.1,204.2,42.8,203.5,40.4z"/>
	</g>
	<g class="st1">
		<path d="M216.1,32.4l1.8,6.2c0.3,1.2,1.3,1.7,2.5,1.3l1.7-0.5l1.3,4.4l-2.4,0.7c-4.1,1.2-6.7-0.1-7.7-3.8l-2-7l-2.6,0.7l-1.3-4.4
			l1.4-0.4c0.9-0.3,1.3-0.9,1-1.8l-0.9-3.1l4.6-1.3l1.3,4.5l3.7-1.1l1.3,4.4L216.1,32.4z"/>
	</g>
	<g class="st1">
		<path d="M243.9,32.9l1.3,4.7l-1.4,0.4c-2.4,0.7-4.2,0.3-5.4-1.1c-0.8,2.1-2.4,3.8-4.8,4.5c-4.7,1.3-9.3-1.5-10.7-6.5
			c-1.5-5.1,1-9.9,5.6-11.2c2.1-0.6,4.1-0.2,5.8,0.8l-0.5-1.9l4.9-1.4l3.1,10.9c0.2,0.9,0.9,1.2,1.8,1L243.9,32.9z M236.3,31
			c-0.7-2.4-3-3.7-5.4-3c-2.4,0.7-3.6,3-2.9,5.4c0.7,2.4,3,3.7,5.3,3C235.7,35.7,236.9,33.4,236.3,31z"/>
	</g>
	<g class="st1">
		<path d="M259.6,28.4l1.3,4.7l-1.3,0.4c-2.6,0.7-5,0.6-7.3-0.2c-1,1.2-2.2,2.3-3.6,3.3l-3-3.4c0.9-0.7,1.8-1.5,2.5-2.4
			c-2.4-2.1-4.3-5.1-5.4-8.9c-1.7-5.9,0.1-10.1,4.3-11.3c4-1.1,7.5,1.1,9,6.3c1.1,3.9,0.8,8.1-0.9,11.8c1.1,0.3,2.3,0.2,3.4-0.1
			L259.6,28.4z M247.6,20.2c0.7,2.4,1.8,4.4,3.1,5.9c0.8-2.5,0.9-5.1,0.2-7.7c-0.6-2.3-1.6-3.3-2.7-3
			C247.1,15.7,246.8,17.3,247.6,20.2z"/>
	</g>
</g>
</svg>
