<?xml version="1.0" encoding="utf-8"?>
<!-- Generator: Adobe Illustrator 27.0.0, SVG Export Plug-In . SVG Version: 6.00 Build 0)  -->
<svg version="1.1" id="Capa_2_00000000213079708840294410000001583779774341214906_"
	 xmlns="http://www.w3.org/2000/svg" xmlns:xlink="http://www.w3.org/1999/xlink" x="0px" y="0px" viewBox="0 0 254.1 93.3"
	 style="enable-background:new 0 0 254.1 93.3;" xml:space="preserve">
<style type="text/css">
	.st0{fill:#E86221;}
	.st1{enable-background:new    ;}
	.st2{fill:#FFC600;}
</style>
<g id="Capa_1-2">
	<path class="st0" d="M209.9,0c-15,0-25.7,6-33.1,12.7C169.3,6,158.6,0,143.6,0S118,6,110.5,12.7C103,6,92.3,0,77.4,0
		S51.7,6,44.2,12.7C36.8,6,26.1,0,11.1,0c0,0-0.1,0-0.1,0C4.9,0,0,5.1,0,11.2C0,26,0,54.1,0,64.1c0,2.4,0.8,4.8,2.2,6.7
		c6.8,9,19.6,22.4,42,22.4c15,0,25.7-6,33.1-12.7c7.5,6.7,18.2,12.7,33.1,12.7s25.7-6,33.1-12.7c7.5,6.7,18.2,12.7,33.1,12.7
		s25.7-6,33.1-12.7c7.5,6.7,18.2,12.7,33.1,12.7h0.1c6,0,11-5,11-11V29.1c0-2.4-0.8-4.8-2.2-6.7C245.1,13.5,232.3,0,209.9,0z"/>
	<g class="st1">
		<path class="st2" d="M87.4,36.6l0,15.8c0,5.4-3.6,8.9-9.1,8.9c-4.5,0-7.8-2.4-8.9-6.2l5.2,0c0.6,1,2,1.6,3.6,1.6
			c2.5,0,4.1-1.7,4.1-4.3l0-0.6C81,53.2,79.2,54,77,54c-4.9,0-8.5-3.9-8.5-9c0-5.1,3.6-8.9,8.5-8.9c2.2,0,4,0.9,5.3,2.3l0-1.9
			L87.4,36.6z M82.4,45.1c0-2.5-1.8-4.4-4.3-4.4c-2.5,0-4.3,1.9-4.3,4.4c0,2.5,1.8,4.4,4.3,4.4C80.5,49.4,82.4,47.6,82.4,45.1z"/>
		<path class="st2" d="M111.1,49.4l0,4.9h-1.4c-2.5,0-4.2-0.9-4.9-2.6c-1.4,1.8-3.4,3-5.8,3c-4.8,0-8.5-4-8.5-9.3
			c0-5.3,3.7-9.2,8.5-9.2c2.2,0,4,0.9,5.3,2.4l0-1.9l5.1,0l0,11.4c0,0.9,0.5,1.4,1.4,1.4H111.1z M104.2,45.4c0-2.5-1.8-4.4-4.3-4.4
			c-2.5,0-4.3,1.9-4.3,4.4c0,2.5,1.8,4.4,4.3,4.4C102.4,49.8,104.2,47.9,104.2,45.4z"/>
	</g>
	<g class="st1">
		<path class="st2" d="M131.4,47.4c0,4.3-2.7,7.3-7.3,7.3c-2.7,0-5-1-6.5-2.6l-0.9,2.2l-5.2,0l7.4-17.7l5.8,0
			C125.1,41.1,131.4,41,131.4,47.4z M126.2,47.3c0-2.1-3-2.9-4.6-5.4l-2.4,6c0.8,1.1,2.2,1.9,3.9,1.9
			C124.9,49.8,126.2,48.8,126.2,47.3z"/>
	</g>
	<g class="st1">
		<path class="st2" d="M139.6,41.2l0,6.5c0,1.2,0.8,2,2.1,2l1.8,0l0,4.6l-2.5,0c-4.2,0-6.4-2-6.4-5.8l0-7.3l-2.7,0l0-4.6l1.5,0
			c1,0,1.5-0.5,1.5-1.5l0-3.2l4.8,0l0,4.6l3.8,0l0,4.6L139.6,41.2z"/>
	</g>
	<g class="st1">
		<path class="st2" d="M164.7,49.4l0,4.9h-1.2c-4.9,0-7.4-2.7-7.4-7.2c0-1.5,0.3-3,1-4.6l-4.3-0.6l-2.3,12.4l-5,0l2.7-13.6
			c-1-0.7-1.6-1.9-1.6-3.1c0-1.9,1.3-3.2,3.3-3.1c1.9,0,3.2,1.2,3.4,2.7l10.9,1.3l0,1.2c-1.9,2.6-2.9,4.9-2.9,6.9
			c0,1.9,0.9,2.9,2.7,2.9L164.7,49.4z"/>
	</g>
	<g class="st1">
		<path class="st2" d="M166,45.5c0-5.3,4.1-9.2,9.5-9.2c5.4,0,9.5,4,9.5,9.3c0,5.3-4.1,9.2-9.5,9.2C170.1,54.7,166,50.7,166,45.5z
			 M179.8,45.5c0-2.5-1.8-4.4-4.3-4.4c-2.5,0-4.3,1.9-4.3,4.4c0,2.5,1.8,4.4,4.3,4.4C178,49.8,179.8,48,179.8,45.5z"/>
	</g>
</g>
</svg>
