<?xml version="1.0" encoding="UTF-8"?>
<svg id="Capa_2" data-name="Capa 2" xmlns="http://www.w3.org/2000/svg" viewBox="0 0 165.68 172.2">
  <defs>
    <style>
      .cls-1 {
        fill: #e86221;
      }

      .cls-2 {
        fill: #fff;
      }
    </style>
  </defs>
  <g id="Capa_1-2" data-name="Capa 1">
    <g>
      <path class="cls-1" d="M111.72,26.28l12.04-8.88c7.44-5.49,17.44,2.1,14.17,10.74l-5.3,13.99c-2.31,6.09,2.22,12.6,8.74,12.55l14.96-.11c9.24-.07,12.88,11.95,5.15,17.02l-12.51,8.2c-5.45,3.57-5.61,11.5-.31,15.29l12.17,8.7c7.52,5.38,3.39,17.24-5.84,16.8l-14.94-.72c-6.51-.31-11.3,6.01-9.24,12.19l4.73,14.19c2.92,8.77-7.39,15.94-14.6,10.16l-11.67-9.36c-5.08-4.08-12.67-1.78-14.64,4.43l-4.52,14.26c-2.79,8.81-15.35,8.56-17.78-.36l-3.93-14.43c-1.71-6.28-9.2-8.89-14.45-5.02l-12.04,8.88c-7.44,5.49-17.44-2.1-14.17-10.74l5.3-13.99c2.31-6.09-2.22-12.6-8.74-12.55l-14.96,.11c-9.24,.07-12.88-11.95-5.15-17.02l12.51-8.2c5.45-3.57,5.61-11.5,.31-15.29l-12.17-8.7c-7.52-5.38-3.39-17.24,5.84-16.8l14.94,.72c6.51,.31,11.3-6.01,9.24-12.19l-4.73-14.19c-2.92-8.77,7.39-15.94,14.6-10.16l11.67,9.36c5.08,4.08,12.67,1.78,14.64-4.43l4.52-14.26c2.79-8.81,15.35-8.56,17.78,.36l3.93,14.43c1.71,6.28,9.2,8.89,14.45,5.02Z"/>
      <g>
        <path class="cls-2" d="M63.03,82.45c5.33-3.42,9.15-5.96,11.48-7.62,.27,.64,.59,1.27,.95,1.9,.37,.63,.85,1.4,1.44,2.33l-16.4,10.41c-1.62-2.8-3.19-5.39-4.7-7.77-1.51-2.38-3.19-4.9-5.03-7.55l16.4-10.41,2.43,3.82-11.42,7.25,1.29,2.03c.68-.41,1.69-1.04,3.01-1.88,2.24-1.42,4.52-2.93,6.86-4.54l2.31,3.63c-2.45,1.43-4.79,2.86-7.02,4.28-1.32,.84-2.32,1.48-2.98,1.92l1.39,2.19Z"/>
        <path class="cls-2" d="M86.79,51.32c1.41,2.44,2.98,5.02,4.7,7.73,1.73,2.73,3.4,5.25,5.01,7.57l-7.56,4.8-12.42-8.28,7.7,11.28-5.42,3.44c-1.62-2.8-3.19-5.39-4.7-7.77-1.5-2.36-3.17-4.87-5.02-7.53l7.77-4.93,12.65,8.58-7.88-11.61,5.17-3.28Z"/>
        <path class="cls-2" d="M57.35,124.47c-2.36-.39-4.34-1.84-5.93-4.35-1.6-2.52-2.11-4.99-1.54-7.41,.58-2.42,2.46-4.64,5.63-6.66,4.45-2.82,8.39-3.19,11.84-1.09-.99,1.24-2.06,2.84-3.21,4.79-.91-.53-1.92-.7-3.04-.53-1.12,.18-2.14,.56-3.05,1.14-1.35,.86-2.13,1.85-2.34,2.98s.02,2.22,.68,3.26c.71,1.13,1.65,1.82,2.81,2.08,1.16,.26,2.47-.08,3.94-1,1.17-.74,1.97-1.52,2.42-2.35,.44-.82,.56-1.76,.35-2.81,1.55-.11,3.47-.35,5.76-.72,.38,2.15-.04,4.08-1.26,5.8-1.22,1.72-2.8,3.2-4.74,4.43-3.18,2.02-5.95,2.83-8.31,2.44Z"/>
        <path class="cls-2" d="M89.46,106.62c-.78-.63-1.77-1.41-2.99-2.34l-6.73,4.28,.86,3.69-5.3,3.36-3.82-19.07,7.77-4.93,15.68,11.54-5.47,3.47Zm-6.29-4.86c-1.47-1.14-2.96-2.27-4.46-3.39l-1.38-1.05c.32,1.59,.83,3.99,1.51,7.18l4.33-2.75Z"/>
        <path class="cls-2" d="M93.97,98.4c-.08-.82-.23-1.73-.45-2.74,1.37-.06,2.81-.34,4.34-.86,1.53-.52,2.86-1.14,4-1.86,1.17-.74,1.93-1.37,2.27-1.87,.35-.51,.45-.88,.3-1.12-.54-.86-2.13-.46-4.74,1.21-2.87,1.82-5.14,2.85-6.82,3.07-1.67,.22-2.94-.33-3.79-1.67-1.21-1.9-1.31-3.8-.3-5.7,1-1.9,2.76-3.65,5.28-5.25,1.46-.93,3.08-1.7,4.86-2.3,1.78-.61,3.49-.98,5.14-1.12,.18,1.19,.47,2.59,.87,4.21,.09,.34,.16,.59,.19,.77-1.08-.12-2.47,.09-4.17,.62-1.69,.53-3.1,1.15-4.21,1.86-1.34,.85-2.18,1.51-2.53,1.98-.35,.47-.42,.88-.21,1.21,.21,.34,.71,.41,1.48,.2,.77-.2,1.76-.69,2.97-1.46,2.98-1.89,5.37-2.93,7.15-3.1,1.78-.17,3.12,.44,4.02,1.85,1.25,1.97,1.43,3.84,.55,5.62-.88,1.78-2.78,3.59-5.7,5.44-1.56,.99-3.26,1.83-5.1,2.51-1.84,.68-3.61,1.11-5.33,1.27,.02-1.02,0-1.94-.08-2.76Z"/>
        <path class="cls-2" d="M128.02,82.14c-.78-.63-1.77-1.41-2.99-2.34l-6.73,4.28,.86,3.69-5.3,3.36-3.82-19.07,7.77-4.93,15.68,11.54-5.47,3.47Zm-6.29-4.86c-1.47-1.14-2.96-2.27-4.46-3.39l-1.38-1.05c.32,1.59,.82,3.99,1.51,7.18l4.33-2.75Z"/>
      </g>
    </g>
  </g>
</svg>