<?xml version="1.0" encoding="utf-8"?>
<!-- Generator: Adobe Illustrator 27.0.0, SVG Export Plug-In . SVG Version: 6.00 Build 0)  -->
<svg version="1.1" id="Capa_2_00000150088028437722619980000007408736348796396187_"
	 xmlns="http://www.w3.org/2000/svg" xmlns:xlink="http://www.w3.org/1999/xlink" x="0px" y="0px" viewBox="0 0 259.4 113.5"
	 style="enable-background:new 0 0 259.4 113.5;" xml:space="preserve">
<style type="text/css">
	.st0{fill:#0016C1;}
	.st1{enable-background:new    ;}
	.st2{fill:#FFFFFF;}
</style>
<g id="Capa_1-2">
	<g>
		
			<ellipse transform="matrix(0.9987 -5.041863e-02 5.041863e-02 0.9987 -2.6973 6.6109)" class="st0" cx="129.7" cy="56.8" rx="129.8" ry="56.5"/>
		<g class="st1">
			<path class="st2" d="M72.7,61.8c2.3,0.9,3.8,2.2,4.5,3.9c0.7,1.7,0.8,3.9,0.4,6.5c-0.4,2.5-1.3,4.6-2.7,6.5
				c-1.4,1.9-3.3,3.4-5.7,4.5c-2.4,1.1-5.2,1.8-8.5,1.9c-2,0.1-4,0.2-6.1,0.3c-2.1,0.1-4.1,0.2-6.2,0.3c0.9-4.4,1.6-8.5,2.2-12.2
				c0.6-3.8,1.1-7.8,1.6-11.9c2.7-0.4,6.3-0.6,10.8-0.9C67.2,60.6,70.4,61,72.7,61.8z M62.7,78.6c2.1-0.1,3.6-0.7,4.4-1.7
				s1.4-2.4,1.7-4.2c0.3-1.7,0.1-3-0.5-4c-0.6-1-1.9-1.5-3.9-1.4c-2.2,0.1-3.8,0.3-4.9,0.4l-1.7,11.1L62.7,78.6z"/>
			<path class="st2" d="M87.3,77.9c8.5-0.5,14.7-0.9,18.6-1.3c-0.3,0.9-0.5,1.9-0.7,2.8c-0.2,1-0.4,2.2-0.6,3.7l-26.1,1.3
				c0.8-4.3,1.6-8.3,2.1-12.1c0.6-3.8,1.1-7.8,1.6-12.1l26.1-1.3l-0.9,6l-18.2,0.9l-0.5,3.2c1.1,0,2.7-0.1,4.8-0.2
				c3.6-0.2,7.3-0.4,11.1-0.8l-0.9,5.7c-3.8,0.1-7.5,0.2-11,0.4c-2.1,0.1-3.7,0.2-4.8,0.3L87.3,77.9z"/>
			<path class="st2" d="M138.6,58.5c2.3,0.9,3.8,2.2,4.5,3.9c0.7,1.7,0.8,3.9,0.4,6.5c-0.4,2.5-1.3,4.6-2.7,6.5
				c-1.4,1.9-3.3,3.4-5.7,4.5c-2.4,1.1-5.2,1.8-8.5,1.9c-2,0.1-4,0.2-6.1,0.3c-2.1,0.1-4.1,0.2-6.2,0.3c0.9-4.4,1.6-8.5,2.2-12.2
				c0.6-3.8,1.1-7.8,1.6-11.9c2.7-0.4,6.3-0.6,10.8-0.9C133.1,57.3,136.4,57.6,138.6,58.5z M128.6,75.3c2.1-0.1,3.6-0.7,4.4-1.7
				c0.8-1,1.4-2.4,1.7-4.2c0.3-1.7,0.1-3-0.5-4c-0.6-1-1.9-1.5-3.9-1.4c-2.2,0.1-3.8,0.3-4.9,0.4l-1.7,11.1L128.6,75.3z"/>
			<path class="st2" d="M166.6,62.5c-2.6,0-4.6,0-5.9,0.1L159,74c1.3-0.1,3.3-0.3,6-0.5l-1,6.6l-19.5,1l1-6.6c2.6,0,4.5,0,5.8-0.1
				L153,63c-1.3,0.1-3.3,0.3-5.9,0.5l1-6.6l19.5-1L166.6,62.5z M160,54.8l-4.3,0.2l1.6-5.2l6.2-0.3L160,54.8z"/>
			<path class="st2" d="M187.8,78.9c-0.2-1.2-0.6-2.8-1-4.7l-10.7,0.5l-2.4,4.8l-8.4,0.4l13.2-24.7l12.4-0.6l5.7,23.7L187.8,78.9z
				 M185.7,69.1c-0.5-2.3-1-4.6-1.5-6.9l-0.5-2.1c-1.1,2.1-2.7,5.2-4.9,9.3L185.7,69.1z"/>
			<path class="st2" d="M205.9,78.6l-7.8,0.4l0.9-5.9l7.8-0.4L205.9,78.6z M210.4,52c-0.2,1.5-0.7,4.3-1.5,8.6
				c-0.1,0.7-0.2,1.2-0.3,1.5c-0.9,3.2-1.6,5.9-2.1,8.2l-6.2,0.3c0.2-2.3,0.4-5,0.4-8.1l0.2-1.5c0.4-3.4,0.8-6.3,1.1-8.5L210.4,52z"
				/>
		</g>
		<g class="st1">
			<path class="st2" d="M88.6,39.1l0.2,4.3l-1.2,0.1c-2,0.1-3.3-0.5-4.1-1.7c-1,1.4-2.4,2.3-4.3,2.4c-3.8,0.2-6.8-2.8-7-7
				c-0.2-4.1,2.5-7.4,6.3-7.6c1.6-0.1,2.9,0.5,3.9,1.4l-0.1-1.3l4.4-0.2l0.4,8.6c0,0.7,0.4,1,1.1,1L88.6,39.1z M82.7,36.7
				c-0.1-1.7-1.4-2.9-3.1-2.9c-1.7,0.1-2.9,1.4-2.8,3.1c0.1,1.7,1.4,2.9,3.1,2.9C81.6,39.8,82.8,38.4,82.7,36.7z"/>
		</g>
		<g class="st1">
			<path class="st2" d="M101.5,38.5l0.2,4.3l-1.2,0.1c-2.1,0.1-4-0.4-5.6-1.4c-1,0.7-2.2,1.3-3.4,1.8l-1.9-3.5
				c0.8-0.3,1.5-0.8,2.2-1.2c-1.4-2-2.3-4.6-2.4-7.6c-0.2-4.8,2-7.7,5.5-7.9c3.4-0.2,5.7,2.2,5.9,6.5c0.1,3-0.8,6-2.7,8.6
				c0.7,0.3,1.5,0.4,2.3,0.4L101.5,38.5z M94,30.5c0.1,1.7,0.5,3.2,1.1,4.5c0.9-1.6,1.4-3.4,1.3-5.2c-0.1-1.7-0.6-2.5-1.3-2.4
				C94.4,27.5,93.9,28.4,94,30.5z"/>
		</g>
		<g class="st1">
			<path class="st2" d="M102.8,35.8c-0.2-4.1,2.9-7.4,7.2-7.6c4.3-0.2,7.7,2.8,7.9,6.9c0.2,4.1-2.9,7.4-7.2,7.6
				C106.3,42.9,103,39.9,102.8,35.8z M113.3,35.3c-0.1-1.7-1.4-2.9-3.1-2.9c-1.7,0.1-2.9,1.4-2.9,3.1c0.1,1.7,1.4,2.9,3.1,2.9
				C112.1,38.4,113.3,37,113.3,35.3z"/>
		</g>
		<g class="st1">
			<path class="st2" d="M134.9,37l0.2,4.3l-1.2,0.1c-3,0.1-4.6-1.2-4.7-4.1L129,34c-0.1-1.4-1-2.4-2.4-2.3c-1.5,0.1-2.5,1.1-2.4,2.6
				l0.4,7.5l-4.4,0.2l-0.7-13.9l4.4-0.2l0.1,1.4c1-1.2,2.3-1.8,3.9-1.9c3.1-0.1,5.3,1.8,5.5,5l0.2,3.7c0,0.7,0.4,1,1.1,1L134.9,37z"
				/>
		</g>
		<g class="st1">
			<path class="st2" d="M152.1,36.1l0.2,4.3l-1.2,0.1c-2,0.1-3.3-0.5-4.1-1.7c-1,1.4-2.4,2.3-4.3,2.4c-3.8,0.2-6.8-2.8-7-7
				c-0.2-4.1,2.5-7.4,6.3-7.6c1.6-0.1,2.9,0.5,3.9,1.4l-0.3-7l4.4-0.2l0.7,14.3c0,0.7,0.4,1,1.1,1L152.1,36.1z M146.3,33.7
				c-0.1-1.7-1.4-2.9-3.1-2.9c-1.7,0.1-2.9,1.4-2.8,3.1c0.1,1.7,1.4,2.9,3.1,2.9C145.1,36.8,146.3,35.5,146.3,33.7z"/>
		</g>
		<g class="st1">
			<path class="st2" d="M168.4,35.4l0.2,4.3l-1,0c-4.1,0.2-6.3-1.9-6.4-5.5c0-1,0.1-2.1,0.5-3.2l-2.7-0.2l-1.3,9.4l-4.3,0.2
				l1.6-10.5c-0.8-0.6-1.3-1.5-1.4-2.6c-0.1-1.6,1-2.7,2.7-2.8c1.6-0.1,2.7,0.9,3,2.1l8.4,0.6l0,1c-1.3,2-2,3.7-2,5.2
				c0.1,1.4,0.8,2.1,2.1,2L168.4,35.4z"/>
		</g>
		<g class="st1">
			<path class="st2" d="M185.6,34.6l0.2,4.3l-1.2,0.1c-2,0.1-3.3-0.5-4.1-1.7c-1,1.4-2.4,2.3-4.3,2.4c-3.8,0.2-6.8-2.8-7-7
				c-0.2-4.1,2.5-7.4,6.3-7.6c1.6-0.1,2.9,0.5,3.9,1.4l-0.1-1.3l4.4-0.2l0.4,8.6c0,0.7,0.4,1,1.1,1L185.6,34.6z M179.7,32.2
				c-0.1-1.7-1.4-2.9-3.1-2.9c-1.7,0.1-2.9,1.4-2.8,3.1c0.1,1.7,1.4,2.9,3.1,2.9C178.6,35.2,179.8,33.9,179.7,32.2z"/>
		</g>
	</g>
</g>
</svg>
