<?xml version="1.0" encoding="utf-8"?>
<!-- Generator: Adobe Illustrator 27.0.0, SVG Export Plug-In . SVG Version: 6.00 Build 0)  -->
<svg version="1.1" id="Capa_2_00000026124807208184448880000010725846828065162381_"
	 xmlns="http://www.w3.org/2000/svg" xmlns:xlink="http://www.w3.org/1999/xlink" x="0px" y="0px" viewBox="0 0 254.1 93.3"
	 style="enable-background:new 0 0 254.1 93.3;" xml:space="preserve">
<style type="text/css">
	.st0{fill:#0019F9;}
	.st1{enable-background:new    ;}
	.st2{fill:#FFC600;}
</style>
<g id="Capa_1-2">
	<path class="st0" d="M209.9,0c-15,0-25.7,6-33.1,12.7C169.3,6,158.6,0,143.6,0S118,6,110.5,12.7C103,6,92.3,0,77.4,0
		S51.7,6,44.2,12.7C36.8,6,26.1,0,11.1,0c0,0-0.1,0-0.1,0C4.9,0,0,5.1,0,11.2C0,26,0,54.1,0,64.1c0,2.4,0.8,4.8,2.2,6.7
		c6.8,9,19.6,22.4,42,22.4c15,0,25.7-6,33.1-12.7c7.5,6.7,18.2,12.7,33.1,12.7s25.7-6,33.1-12.7c7.5,6.7,18.2,12.7,33.1,12.7
		s25.7-6,33.1-12.7c7.5,6.7,18.2,12.7,33.1,12.7h0.1c6,0,11-5,11-11V29.1c0-2.4-0.8-4.8-2.2-6.7C245.1,13.5,232.3,0,209.9,0z"/>
	<g class="st1">
		<path class="st2" d="M42.9,50.2c0-5.3,4.1-9.2,9.5-9.2c4.7,0,8.5,3.1,9.3,7.4l-5.4,0c-0.7-1.5-2.2-2.5-3.9-2.5
			c-2.5,0-4.3,1.9-4.3,4.4c0,2.5,1.8,4.4,4.3,4.4c1.8,0,3.3-1,4-2.5l5.4,0c-0.8,4.3-4.6,7.4-9.3,7.4C47,59.4,42.9,55.4,42.9,50.2z"
			/>
	</g>
	<g class="st1">
		<path class="st2" d="M82.6,54.2l0,4.9l-1.4,0c-2.5,0-4.2-0.9-4.9-2.6c-1.3,1.9-3.3,3-5.6,3c-3.9,0-6.5-2.6-6.5-6.7l0-11.4l5.1,0
			l0,9.9c0,2,1.2,3.3,3.1,3.3c2,0,3.4-1.3,3.4-3.4l0-9.8l5.1,0l0,11.4c0,0.9,0.5,1.4,1.4,1.4H82.6z"/>
	</g>
	<g class="st1">
		<path class="st2" d="M99,54.2l0,4.9l-1.4,0c-2.7,0-5-0.8-7-2.2c-1.4,0.9-2.8,1.6-4.4,2.2L84.3,55c1.1-0.4,2.1-1,3-1.6
			c-1.8-2.7-2.7-6.1-2.7-10c0-6.2,2.9-9.7,7.2-9.7c4.2,0,6.9,3.2,6.9,8.5c0,4-1.5,8-4.1,11.1c1,0.6,2.1,0.9,3.3,0.9L99,54.2z
			 M89.8,43c0,2.5,0.5,4.7,1.4,6.5c1.5-2.1,2.3-4.7,2.3-7.3c0-2.4-0.7-3.6-1.8-3.6C90.6,38.6,89.8,40,89.8,43z"/>
	</g>
	<g class="st1">
		<path class="st2" d="M108.9,46l0,6.5c0,1.2,0.8,2,2.1,2l1.8,0l0,4.6l-2.5,0c-4.2,0-6.4-2-6.4-5.8l0-7.3l-2.7,0l0-4.6l1.5,0
			c1,0,1.5-0.5,1.5-1.5l0-3.2l4.8,0l0,4.6l3.8,0l0,4.6L108.9,46z"/>
	</g>
	<g class="st1">
		<path class="st2" d="M134.2,54.2l0,4.9l-1.4,0c-2.5,0-4.2-0.9-4.9-2.6c-1.3,1.9-3.3,3-5.6,3c-3.9,0-6.5-2.6-6.5-6.7l0-11.4l5.1,0
			l0,9.9c0,2,1.2,3.3,3.1,3.3c2,0,3.4-1.3,3.4-3.4l0-9.8l5.1,0l0,11.4c0,0.9,0.5,1.4,1.4,1.4H134.2z"/>
	</g>
	<g class="st1">
		<path class="st2" d="M155,54.2l0,4.9l-1.2,0c-4.9,0-7.4-2.7-7.4-7.2c0-1.5,0.3-3,1-4.6l-4.3-0.6l-2.3,12.4l-5,0l2.7-13.6
			c-1-0.7-1.6-1.9-1.6-3.1c0-1.9,1.3-3.2,3.3-3.1c1.9,0,3.2,1.2,3.4,2.7l10.9,1.3l0,1.2c-1.9,2.6-2.9,4.9-2.9,6.9
			c0,1.9,0.9,2.9,2.7,2.9L155,54.2z"/>
	</g>
	<g class="st1">
		<path class="st2" d="M175.2,51.9l-13.5,0c0.6,2,2.1,3.2,4.3,3.2c1.7,0,3-0.7,3.7-1.6l5.4,0c-1.3,3.6-4.9,6-9.2,6
			c-5.5,0-9.6-4-9.6-9.3c0-5.3,4.1-9.2,9.5-9.2c5.4,0,9.5,4,9.5,9.3C175.3,50.8,175.3,51.5,175.2,51.9z M161.7,48.6l8.2,0
			c-0.5-1.9-2.1-3.2-4.1-3.2C163.8,45.4,162.3,46.6,161.7,48.6z"/>
	</g>
	<g class="st1">
		<path class="st2" d="M184.4,46.1l0,6.5c0,1.2,0.8,2,2.1,2l1.8,0l0,4.6l-2.5,0c-4.2,0-6.4-2-6.4-5.8l0-7.3l-2.7,0l0-4.6l1.5,0
			c1,0,1.5-0.5,1.5-1.5l0-3.2l4.8,0l0,4.6l3.8,0l0,4.6L184.4,46.1z"/>
	</g>
	<g class="st1">
		<path class="st2" d="M211,54.3l0,4.9l-1.4,0c-2.5,0-4.2-0.9-4.9-2.6c-1.4,1.8-3.4,3-5.8,3c-4.8,0-8.5-4-8.5-9.3
			c0-5.3,3.7-9.2,8.5-9.2c2.2,0,4,0.9,5.3,2.4l0-1.9l5.1,0l0,11.4c0,0.9,0.5,1.4,1.4,1.4L211,54.3z M204.2,50.3
			c0-2.5-1.8-4.4-4.3-4.4c-2.5,0-4.3,1.9-4.3,4.4c0,2.5,1.8,4.4,4.3,4.4C202.3,54.7,204.2,52.8,204.2,50.3z"/>
	</g>
</g>
</svg>
