<?xml version="1.0" encoding="UTF-8"?>
<svg id="Capa_2" data-name="Capa 2" xmlns="http://www.w3.org/2000/svg" viewBox="0 0 165.68 172.2">
  <defs>
    <style>
      .cls-1 {
        fill: #0019f5;
      }

      .cls-2 {
        fill: #fff;
      }
    </style>
  </defs>
  <g id="Capa_1-2" data-name="Capa 1">
    <g>
      <path class="cls-1" d="M111.72,26.28l12.04-8.88c7.44-5.49,17.44,2.1,14.17,10.74l-5.3,13.99c-2.31,6.09,2.22,12.6,8.74,12.55l14.96-.11c9.24-.07,12.88,11.95,5.15,17.02l-12.51,8.2c-5.45,3.57-5.61,11.5-.31,15.29l12.17,8.7c7.52,5.38,3.39,17.24-5.84,16.8l-14.94-.72c-6.51-.31-11.3,6.01-9.24,12.19l4.73,14.19c2.92,8.77-7.39,15.94-14.6,10.16l-11.67-9.36c-5.08-4.08-12.67-1.78-14.64,4.43l-4.52,14.26c-2.79,8.81-15.35,8.56-17.78-.36l-3.93-14.43c-1.71-6.28-9.2-8.89-14.45-5.02l-12.04,8.88c-7.44,5.49-17.44-2.1-14.17-10.74l5.3-13.99c2.31-6.09-2.22-12.6-8.74-12.55l-14.96,.11c-9.24,.07-12.88-11.95-5.15-17.02l12.51-8.2c5.45-3.57,5.61-11.5,.31-15.29l-12.17-8.7c-7.52-5.38-3.39-17.24,5.84-16.8l14.94,.72c6.51,.31,11.3-6.01,9.24-12.19l-4.73-14.19c-2.92-8.77,7.39-15.94,14.6-10.16l11.67,9.36c5.08,4.08,12.67,1.78,14.64-4.43l4.52-14.26c2.79-8.81,15.35-8.56,17.78,.36l3.93,14.43c1.71,6.28,9.2,8.89,14.45,5.02Z"/>
      <g>
        <path class="cls-2" d="M44.64,97.83c5.3-3.47,9.1-6.05,11.41-7.72,.27,.64,.6,1.26,.97,1.89,.37,.62,.86,1.39,1.46,2.32l-16.3,10.56c-1.65-2.79-3.23-5.36-4.77-7.72-1.53-2.36-3.23-4.87-5.1-7.51l16.3-10.56,2.46,3.8-11.35,7.36,1.31,2.01c.68-.42,1.68-1.06,2.99-1.91,2.22-1.44,4.5-2.97,6.82-4.6l2.34,3.61c-2.43,1.46-4.76,2.91-6.98,4.35-1.32,.85-2.3,1.5-2.97,1.95l1.41,2.18Z"/>
        <path class="cls-2" d="M68.12,66.48c1.43,2.43,3.03,4.99,4.77,7.69,1.76,2.71,3.45,5.22,5.08,7.52l-7.51,4.87-12.5-8.17,7.8,11.21-5.39,3.49c-1.65-2.79-3.23-5.36-4.77-7.72-1.52-2.35-3.22-4.84-5.09-7.49l7.72-5,12.72,8.47-7.98-11.54,5.14-3.33Z"/>
        <path class="cls-2" d="M86.22,70.32c4.04-2.65,7.35-4.9,9.93-6.73,.28,.83,.61,1.59,1,2.27,.38,.68,.88,1.5,1.49,2.43l-14.79,9.58c-1.65-2.79-3.23-5.36-4.77-7.73-1.53-2.36-3.23-4.86-5.1-7.51l5.12-3.32,7.12,10.99Z"/>
        <path class="cls-2" d="M113.95,58.37c-.78-.62-1.79-1.39-3.01-2.31l-6.69,4.34,.9,3.68-5.27,3.41-4-19.04,7.72-5,15.79,11.4-5.43,3.52Zm-6.33-4.8c-1.48-1.12-2.98-2.24-4.49-3.35l-1.39-1.04c.34,1.59,.86,3.98,1.58,7.17l4.3-2.79Z"/>
        <path class="cls-2" d="M53.4,130.79c-2.37-.37-4.36-1.8-5.97-4.29-1.62-2.5-2.16-4.97-1.6-7.39,.55-2.42,2.41-4.66,5.57-6.71,4.42-2.86,8.36-3.26,11.82-1.2-.98,1.25-2.03,2.86-3.16,4.82-.91-.52-1.93-.69-3.05-.5s-2.13,.58-3.04,1.17c-1.34,.87-2.12,1.87-2.31,3-.2,1.13,.04,2.22,.71,3.25,.72,1.12,1.67,1.8,2.83,2.05s2.47-.1,3.93-1.04c1.16-.75,1.96-1.54,2.4-2.37,.44-.83,.54-1.77,.32-2.81,1.55-.13,3.46-.39,5.75-.78,.4,2.15,0,4.08-1.21,5.82-1.2,1.73-2.77,3.22-4.7,4.47-3.16,2.05-5.92,2.89-8.29,2.51Z"/>
        <path class="cls-2" d="M85.35,112.65c-.78-.62-1.79-1.39-3.01-2.31l-6.69,4.34,.9,3.68-5.27,3.41-4-19.04,7.72-5,15.79,11.4-5.43,3.52Zm-6.33-4.8c-1.48-1.12-2.98-2.24-4.49-3.35l-1.39-1.04c.34,1.59,.86,3.98,1.58,7.17l4.3-2.79Z"/>
        <path class="cls-2" d="M93.85,101.13c4.04-2.66,7.35-4.9,9.93-6.74,.28,.83,.61,1.59,1,2.27,.38,.68,.88,1.5,1.49,2.43l-14.79,9.58c-1.65-2.79-3.23-5.36-4.77-7.73-1.53-2.36-3.23-4.86-5.1-7.51l5.12-3.32,7.12,10.99Z"/>
        <path class="cls-2" d="M110.3,90.47c4.04-2.66,7.35-4.9,9.93-6.74,.28,.83,.61,1.59,1,2.27,.38,.69,.88,1.5,1.49,2.43l-14.79,9.58c-1.65-2.79-3.24-5.36-4.77-7.72-1.53-2.36-3.23-4.87-5.1-7.51l5.12-3.32,7.12,10.99Z"/>
        <path class="cls-2" d="M127.25,80.05c5.3-3.47,9.1-6.05,11.41-7.72,.27,.64,.6,1.27,.97,1.89s.86,1.39,1.46,2.32l-16.3,10.56c-1.65-2.79-3.24-5.36-4.77-7.73-1.53-2.36-3.23-4.87-5.1-7.51l16.3-10.56,2.46,3.8-11.35,7.36,1.31,2.01c.68-.42,1.68-1.06,2.99-1.91,2.22-1.44,4.5-2.97,6.82-4.6l2.34,3.61c-2.43,1.46-4.76,2.91-6.98,4.35-1.32,.85-2.3,1.5-2.97,1.95l1.41,2.18Z"/>
      </g>
    </g>
  </g>
</svg>