<?xml version="1.0" encoding="utf-8"?>
<!-- Generator: Adobe Illustrator 27.0.0, SVG Export Plug-In . SVG Version: 6.00 Build 0)  -->
<svg version="1.1" id="Capa_2_00000173136828914636454960000014577318348942240395_"
	 xmlns="http://www.w3.org/2000/svg" xmlns:xlink="http://www.w3.org/1999/xlink" x="0px" y="0px" viewBox="0 0 254.1 93.3"
	 style="enable-background:new 0 0 254.1 93.3;" xml:space="preserve">
<style type="text/css">
	.st0{fill:#45AB65;}
	.st1{enable-background:new    ;}
	.st2{fill:#FFC600;}
</style>
<g id="Capa_1-2">
	<path class="st0" d="M209.9,0c-15,0-25.7,6-33.1,12.7C169.3,6,158.6,0,143.6,0S118,6,110.5,12.7C103,6,92.3,0,77.4,0
		S51.7,6,44.2,12.7C36.8,6,26.1,0,11.1,0c0,0-0.1,0-0.1,0C4.9,0,0,5.1,0,11.2C0,26,0,54.1,0,64.1c0,2.4,0.8,4.8,2.2,6.7
		c6.8,9,19.6,22.4,42,22.4c15,0,25.7-6,33.1-12.7c7.5,6.7,18.2,12.7,33.1,12.7s25.7-6,33.1-12.7c7.5,6.7,18.2,12.7,33.1,12.7
		s25.7-6,33.1-12.7c7.5,6.7,18.2,12.7,33.1,12.7h0.1c6,0,11-5,11-11V29.1c0-2.4-0.8-4.8-2.2-6.7C245.1,13.5,232.3,0,209.9,0z"/>
	<g class="st1">
		<path class="st2" d="M35.8,52.4c0,4.3-2.7,7.3-7.3,7.3c-2.7,0-5-1-6.5-2.6L21,59.3l-5.2,0l7.4-17.7l5.8,0
			C29.5,46.1,35.8,46,35.8,52.4z M30.6,52.3c0-2.1-3-2.9-4.6-5.4l-2.4,6c0.8,1.1,2.2,1.9,3.9,1.9C29.3,54.8,30.6,53.8,30.6,52.3z"/>
	</g>
	<g class="st1">
		<path class="st2" d="M37.4,50.4c0-5.3,4.1-9.2,9.5-9.2c5.4,0,9.5,4,9.5,9.3c0,5.3-4.1,9.2-9.5,9.2C41.5,59.7,37.4,55.7,37.4,50.4z
			 M51.3,50.4c0-2.5-1.8-4.4-4.3-4.4c-2.5,0-4.3,1.9-4.3,4.4c0,2.5,1.8,4.4,4.3,4.4C49.5,54.8,51.3,52.9,51.3,50.4z"/>
	</g>
	<g class="st1">
		<path class="st2" d="M65.8,41l0,0.6l3.8,0l0,4.6l-3.8,0l0,13.3c0,4.2-2.4,6.3-6.9,6.3l-1.3,0l0-4.6h0.8c1.5,0,2.4-0.8,2.4-2.2
			l0-12.8l-2.7,0l0-4.6l2.7,0l0-1.2c0-4.2,2.4-6.3,6.9-6.3l2,0l0,4.6l-1.5,0C66.6,38.8,65.8,39.6,65.8,41z"/>
	</g>
	<g class="st1">
		<path class="st2" d="M91.6,54.4l0,4.9l-1.4,0c-2.5,0-4.2-0.9-4.9-2.6c-1.4,1.8-3.4,3-5.8,3c-4.8,0-8.5-4-8.5-9.3
			c0-5.3,3.7-9.2,8.5-9.2c2.2,0,4,0.9,5.3,2.4l0-1.9l5.1,0l0,11.4c0,0.9,0.5,1.4,1.4,1.4L91.6,54.4z M84.8,50.5
			c0-2.5-1.8-4.4-4.3-4.4c-2.5,0-4.3,1.9-4.3,4.4c0,2.5,1.8,4.4,4.3,4.4C83,54.8,84.8,53,84.8,50.5z M83.5,39.8l-5.3,0l3.5-5.1
			l6.3,0L83.5,39.8z"/>
		<path class="st2" d="M118.2,41.7l0,16.6c0,4.9-3.4,8.1-8.4,8.1c-4.3,0-7.3-2.4-8.3-6.2l5.2,0c0.6,1,1.7,1.6,3,1.6
			c2,0,3.4-1.3,3.4-3.5l0-1.4c-1.3,1.5-3.1,2.4-5.1,2.4c-3.9,0-6.5-2.7-6.5-6.7l0-10.8l5.1,0l0,9.3c0,2,1.2,3.3,3.1,3.3
			c2,0,3.4-1.3,3.4-3.4l0-9.2L118.2,41.7z"/>
	</g>
	<g class="st1">
		<path class="st2" d="M158.7,54.5l0,4.9l-1.4,0c-3.6,0-5.4-1.8-5.4-5.2l0-4.8c0-1.9-1.2-3.2-3-3.2c-2,0-3.3,1.3-3.3,3.3l0,9.9
			l-5.1,0l0-10c0-1.9-1.2-3.2-3-3.2c-2,0-3.3,1.3-3.3,3.3l0,9.9l-5.1,0l0-17.7l5.1,0l0,1.9c1.3-1.5,3-2.3,5-2.3
			c2.5,0,4.5,1.1,5.6,3.1c1.4-2,3.4-3,5.9-3c3.8,0,6.4,2.6,6.4,6.6l0,5.2c0,0.9,0.5,1.4,1.4,1.4H158.7z"/>
	</g>
	<g class="st1">
		<path class="st2" d="M180.7,54.5l0,4.9l-1.4,0c-2.5,0-4.2-0.9-4.9-2.6c-1.4,1.8-3.4,3-5.8,3c-4.8,0-8.5-4-8.5-9.3
			c0-5.3,3.7-9.2,8.5-9.2c2.2,0,4,0.9,5.3,2.4l0-1.9l5.1,0l0,11.4c0,0.9,0.5,1.4,1.4,1.4L180.7,54.5z M173.9,50.6
			c0-2.5-1.8-4.4-4.3-4.4c-2.5,0-4.3,1.9-4.3,4.4c0,2.5,1.8,4.4,4.3,4.4C172.1,54.9,173.9,53,173.9,50.6z"/>
	</g>
	<g class="st1">
		<path class="st2" d="M202.1,54.5l0,4.9l-1.4,0c-3.6,0-5.4-1.8-5.4-5.2l0-4.5c0-2.1-1.3-3.5-3.4-3.5c-2.2,0-3.7,1.4-3.7,3.6l0,9.6
			l-5.1,0l0-17.7l5.1,0l0,1.9c1.4-1.6,3.2-2.4,5.4-2.4c4.1,0,6.8,2.7,6.7,6.7l0,5.1c0,0.9,0.5,1.4,1.4,1.4H202.1z"/>
	</g>
	<g class="st1">
		<path class="st2" d="M210.7,46.4l0,6.5c0,1.2,0.8,2,2.1,2l1.8,0l0,4.6l-2.5,0c-4.2,0-6.4-2-6.4-5.8l0-7.3l-2.7,0l0-4.6l1.5,0
			c1,0,1.5-0.5,1.5-1.5l0-3.2l4.8,0l0,4.6l3.8,0l0,4.6L210.7,46.4z"/>
	</g>
	<g class="st1">
		<path class="st2" d="M237.3,54.6l0,4.9l-1.4,0c-2.5,0-4.2-0.9-4.9-2.6c-1.4,1.8-3.4,3-5.8,3c-4.8,0-8.5-4-8.5-9.3
			c0-5.3,3.7-9.2,8.5-9.2c2.2,0,4,0.9,5.3,2.4l0-1.9l5.1,0l0,11.4c0,0.9,0.5,1.4,1.4,1.4L237.3,54.6z M230.5,50.6
			c0-2.5-1.8-4.4-4.3-4.4c-2.5,0-4.3,1.9-4.3,4.4c0,2.5,1.8,4.4,4.3,4.4C228.6,55,230.5,53.1,230.5,50.6z"/>
	</g>
</g>
</svg>
