<?xml version="1.0" encoding="utf-8"?>
<!-- Generator: Adobe Illustrator 27.0.0, SVG Export Plug-In . SVG Version: 6.00 Build 0)  -->
<svg version="1.1" id="Capa_2_00000171705589993086664490000003985163685033304499_"
	 xmlns="http://www.w3.org/2000/svg" xmlns:xlink="http://www.w3.org/1999/xlink" x="0px" y="0px" viewBox="0 0 267.1 149"
	 style="enable-background:new 0 0 267.1 149;" xml:space="preserve">
<style type="text/css">
	.st0{fill:#E86221;}
	.st1{fill:none;stroke:#FF00FF;stroke-width:3;}
	.st2{enable-background:new    ;}
	.st3{fill:#E8E6DF;}
	.st4{fill:#ECD9CB;}
</style>
<g id="Capa_1-2">
	<g>
		<g>
			<g>
				<path class="st0" d="M235.2,147.2L10.1,94.3c-6.4-1.5-10-9.2-8.2-17.2l15-63.6c1.9-8,8.6-13.2,14.9-11.7L257,54.7
					c6.4,1.5,10,9.2,8.1,17.2l-15,63.6C248.3,143.4,241.6,148.7,235.2,147.2L235.2,147.2z"/>
				<path class="st1" d="M235.2,147.2L10.1,94.3c-6.4-1.5-10-9.2-8.2-17.2l15-63.6c1.9-8,8.6-13.2,14.9-11.7L257,54.7
					c6.4,1.5,10,9.2,8.1,17.2l-15,63.6C248.3,143.4,241.6,148.7,235.2,147.2L235.2,147.2z"/>
			</g>
			<g class="st2">
				<path class="st3" d="M73.8,70.4c-3.9-1-7.6-2-11.3-2.9L58,86.9l-9.3-2.2l4.6-19.4c-3.7-0.8-7.5-1.7-11.3-2.4l1.8-7.8l31.9,7.5
					L73.8,70.4z"/>
			</g>
			<g class="st2">
				<path class="st3" d="M92.7,95.1c-0.1-1.5-0.4-3.4-0.6-5.8l-11.8-2.8l-3.1,4.9l-9.3-2.2l16.7-24.5l13.7,3.2l4.1,29.4L92.7,95.1z
					 M91.3,83.1c-0.3-2.8-0.7-5.6-1.1-8.5L90,71.9c-1.4,2-3.5,5.2-6.2,9.3L91.3,83.1z"/>
				<path class="st3" d="M135.5,92c-1.4,1.2-3.5,1.9-6.2,2c0.2,0.5,0.3,0.8,0.4,1.1l4,9.8l-10.1-2.4c-0.6-2.3-1.7-5.6-3.1-9.8
					l-5.5-1.3l-2,8.6l-8.8-2.1c1.3-4.8,2.5-9.2,3.5-13.4c1-4.2,1.9-8.7,2.9-13.6l8.8,2.1l0,0l7.6,1.8c5,1.2,8.3,2.8,9.9,4.9
					c1.6,2.1,2.1,4.5,1.4,7.2C137.9,89,136.9,90.7,135.5,92z M117.7,80.1l-1,4.2l5,1.2c2.1,0.5,3.7,0.8,4.8,0.9
					c1.1,0.1,1.9,0.1,2.4-0.1c0.5-0.2,0.8-0.6,0.9-1.2c0.1-0.5,0-1-0.3-1.4c-0.3-0.4-1-0.8-2.1-1.2c-1.1-0.4-2.7-0.8-4.8-1.3
					L117.7,80.1z"/>
				<path class="st3" d="M166.1,85.3c2.4,1.8,4,3.8,4.6,6c0.6,2.2,0.6,4.8-0.1,7.7c-0.6,2.7-1.8,5-3.6,6.8c-1.7,1.8-4,2.9-6.7,3.5
					c-2.7,0.5-5.9,0.4-9.5-0.5c-2.2-0.5-4.4-1-6.7-1.6c-2.3-0.5-4.6-1.1-6.9-1.7c1.3-4.8,2.5-9.3,3.5-13.6c1-4.3,1.9-8.7,2.8-13.4
					c3,0.4,7,1.3,12,2.4C160.1,82.1,163.6,83.5,166.1,85.3z M153.5,101.6c2.3,0.5,4,0.3,5-0.6c1-0.9,1.8-2.4,2.2-4.3
					c0.4-1.9,0.4-3.5-0.1-4.9c-0.5-1.4-1.9-2.3-4.1-2.8c-2.4-0.6-4.2-0.9-5.4-1l-2.9,12.4L153.5,101.6z"/>
				<path class="st3" d="M180.6,108.6c9.4,2.2,16.3,3.6,20.6,4.4c-0.4,1-0.8,2-1.1,3.1s-0.6,2.4-1,4.1l-28.9-6.8
					c1.3-4.8,2.5-9.2,3.5-13.4c1-4.2,1.9-8.7,2.9-13.6l28.9,6.8l-1.6,6.7l-20.1-4.7l-0.8,3.6c1.2,0.3,2.9,0.7,5.3,1.3
					c3.9,0.9,8,1.8,12.3,2.7L199,109c-4.2-1.1-8.2-2.2-12.2-3.1c-2.3-0.5-4.1-0.9-5.3-1.2L180.6,108.6z"/>
				<path class="st3" d="M210.8,123.7l-8.6-2l1.6-6.6l8.6,2L210.8,123.7z M218.2,94c-0.4,1.7-1.2,4.8-2.4,9.5
					c-0.2,0.7-0.4,1.3-0.5,1.6c-1.3,3.4-2.3,6.3-3.1,8.9l-6.9-1.6c0.5-2.6,0.9-5.7,1.2-9.4l0.3-1.6c0.7-3.8,1.4-7,2-9.6L218.2,94z"
					/>
			</g>
		</g>
		<g class="st2">
			<path class="st4" d="M90.4,41.4c-1,4.6-5,7.3-9.2,6.4c-1.7-0.4-3-1.4-3.9-2.8L77,46.5l-4.9-1.1l5-21.7l4.9,1.1l-1.8,7.8
				c1.3-0.9,3-1.2,4.7-0.8C89.1,32.6,91.5,36.8,90.4,41.4z M85.4,40.3c0.4-1.9-0.6-3.6-2.5-4.1c-1.9-0.4-3.6,0.7-4.1,2.6
				c-0.4,1.9,0.7,3.6,2.6,4.1S84.9,42.2,85.4,40.3z"/>
		</g>
		<g class="st2">
			<path class="st4" d="M107.9,48.5l-1.1,4.7l-1.3-0.3c-2.3-0.5-3.6-1.6-4-3.2c-1.5,1.4-3.4,1.9-5.4,1.5c-3.4-0.8-5.1-3.5-4.3-7
				l2.3-10l4.9,1.1l-1.9,8.5c-0.3,1.5,0.4,2.7,1.8,3c1.5,0.4,2.8-0.4,3.1-2l1.9-8.5l4.9,1.1l-2.2,9.5c-0.2,0.8,0.2,1.2,0.9,1.4
				L107.9,48.5z"/>
		</g>
		<g class="st2">
			<path class="st4" d="M126.1,52.7l-1.1,4.7l-1.1-0.3c-4.5-1-6.3-4-5.4-8c0.3-1.1,0.7-2.2,1.5-3.3l-2.9-1.1l-4.3,9.9l-4.8-1.1
				l4.9-11c-0.7-0.9-1-2.1-0.7-3.2c0.4-1.8,2-2.7,3.8-2.3c1.8,0.4,2.7,1.8,2.6,3.2l9,3.2l-0.3,1.1c-2.1,1.8-3.4,3.5-3.7,5.1
				c-0.4,1.5,0.2,2.5,1.7,2.8L126.1,52.7z"/>
		</g>
		<g class="st2">
			<path class="st4" d="M144.2,56.8l-1.1,4.7l-1.1-0.3c-4.5-1-6.3-4-5.4-8c0.3-1.1,0.7-2.2,1.5-3.3l-2.9-1.1l-4.3,9.9l-4.8-1.1
				l4.9-11c-0.7-0.9-1-2.1-0.7-3.2c0.4-1.8,2-2.7,3.8-2.3c1.8,0.4,2.7,1.8,2.6,3.2l9,3.2l-0.3,1.1c-2.1,1.8-3.4,3.5-3.7,5.1
				c-0.4,1.5,0.2,2.5,1.7,2.8L144.2,56.8z"/>
		</g>
		<g class="st2">
			<path class="st4" d="M145.8,54c1-4.6,5.4-7.3,10.2-6.2c4.7,1.1,7.5,5.4,6.5,10c-1,4.6-5.4,7.2-10.2,6.2
				C147.5,62.9,144.7,58.6,145.8,54z M157.4,56.7c0.4-1.9-0.7-3.6-2.5-4.1c-1.9-0.4-3.6,0.7-4.1,2.6s0.7,3.6,2.6,4.1
				C155.2,59.7,157,58.6,157.4,56.7z"/>
		</g>
		<g class="st2">
			<path class="st4" d="M187.3,66.6l-1.1,4.7l-1.3-0.3c-2.2-0.5-3.5-1.5-4-3.1c-1.5,1.3-3.4,1.8-5.4,1.4c-4.2-1-6.6-5.2-5.5-9.7
				c1-4.6,5-7.3,9.2-6.4c1.7,0.4,3,1.4,3.9,2.8l1.8-7.8l4.9,1.1l-3.6,15.9c-0.2,0.8,0.1,1.2,0.9,1.4L187.3,66.6z M181.7,62.2
				c0.4-1.9-0.7-3.6-2.6-4.1s-3.6,0.7-4,2.6c-0.4,1.9,0.6,3.6,2.5,4.1C179.5,65.2,181.2,64.1,181.7,62.2z"/>
		</g>
		<g class="st2">
			<path class="st4" d="M205.4,69.2l-11.3-2.6c0.1,1.6,1.1,2.8,2.7,3.1c1.3,0.3,2.4,0,3.1-0.5l5.2,1.2c-1.8,2.9-5.5,4.4-9.3,3.5
				c-4.8-1.1-7.5-5.4-6.5-10c1-4.6,5.4-7.3,10.1-6.2c4.8,1.1,7.6,5.3,6.5,10.1C205.7,68.2,205.6,68.8,205.4,69.2z M194.8,63.6
				L201,65c-0.1-1.6-1.1-2.7-2.6-3.1C197,61.6,195.6,62.3,194.8,63.6z"/>
		</g>
	</g>
</g>
</svg>
