<?xml version="1.0" encoding="utf-8"?>
<!-- Generator: Adobe Illustrator 27.0.0, SVG Export Plug-In . SVG Version: 6.00 Build 0)  -->
<svg version="1.1" id="Capa_2_00000152256053167776894490000017703431142749409717_"
	 xmlns="http://www.w3.org/2000/svg" xmlns:xlink="http://www.w3.org/1999/xlink" x="0px" y="0px" viewBox="0 0 246 138.5"
	 style="enable-background:new 0 0 246 138.5;" xml:space="preserve">
<style type="text/css">
	.st0{fill:#E9BD10;}
	.st1{fill:none;stroke:#010101;stroke-width:1.44;}
	.st2{enable-background:new    ;}
	.st3{fill:#010101;}
</style>
<g id="Capa_1-2">
	<g>
		<g>
			<g>
				
					<ellipse transform="matrix(0.9942 -0.1077 0.1077 0.9942 -6.7372 13.6465)" class="st0" cx="123" cy="69.2" rx="123.5" ry="68.3"/>
				<path class="st1" d="M106.5,135.6c-56.6,0-100.1-22.4-103.4-53.4c-1.9-17.1,8.6-34.5,29.6-49.3C54.1,17.9,83.7,7.7,116,4.2
					c7.9-0.8,15.8-1.3,23.5-1.3c56.6,0,100.1,22.4,103.4,53.4c1.9,17.1-8.6,34.6-29.6,49.3c-21.4,15.1-51,25.3-83.3,28.8
					C122.2,135.1,114.3,135.6,106.5,135.6L106.5,135.6z"/>
			</g>
			<g class="st2">
				<path class="st3" d="M64.6,69.8c0.3,4.8,0.8,9.9,1.4,15.3c0.6,5.4,1.2,10.5,2,15.3l-15.1,1.6L40.1,80l3.2,22.9l-10.8,1.2
					c-0.4-5.5-0.8-10.6-1.3-15.3c-0.5-4.7-1.2-9.8-2-15.2l15.5-1.7l12.8,22.5l-3.3-23.6L64.6,69.8z"/>
				<path class="st3" d="M75.4,95.7c-3.3-2.5-5.3-6.2-5.8-11.3c-0.5-5,0.5-9.1,3.3-12.2c2.7-3.1,7.3-5.1,13.8-5.8
					c6.5-0.7,11.4,0.2,14.7,2.7c3.3,2.5,5.3,6.2,5.8,11.2c0.6,5.1-0.5,9.2-3.2,12.3c-2.7,3.1-7.3,5-13.8,5.7
					C83.6,99,78.7,98.1,75.4,95.7z M95.7,87.2c1.2-1.3,1.7-3.3,1.5-5.8c-0.3-2.5-1.2-4.2-2.7-5.3C93,75,90.6,74.7,87.5,75
					c-3.1,0.3-5.3,1.2-6.5,2.5c-1.2,1.4-1.7,3.3-1.5,5.7c0.3,2.5,1.2,4.3,2.7,5.3c1.5,1.1,3.8,1.4,6.9,1.1
					C92.2,89.4,94.4,88.6,95.7,87.2z"/>
				<path class="st3" d="M116.3,91.4c-3.3-2.4-5.2-6.1-5.8-11.1c-0.5-5,0.5-9.2,3.2-12.4c2.7-3.2,7.2-5.2,13.6-5.9
					c8.9-1,15.1,1.4,18.8,7.2c-2.4,1.1-5.3,2.8-8.5,4.9c-1-1.5-2.4-2.5-4.2-3.1c-1.8-0.6-3.7-0.8-5.5-0.6c-2.7,0.3-4.6,1.2-5.8,2.8
					c-1.2,1.6-1.6,3.4-1.4,5.5c0.2,2.2,1.2,4,2.7,5.3c1.6,1.3,3.8,1.7,6.7,1.4c2.3-0.3,4.1-0.8,5.4-1.8c1.3-0.9,2.2-2.3,2.6-4
					c2.4,1,5.5,2.1,9.3,3.2c-1,3.6-3.1,6.2-6.3,7.9c-3.1,1.7-6.6,2.8-10.5,3.2C124.4,94.6,119.6,93.8,116.3,91.4z"/>
				<path class="st3" d="M183.9,56.8c0.3,4.8,0.8,9.9,1.4,15.3c0.6,5.4,1.2,10.5,2,15.3l-9.9,1.1L176.1,77l-15.5,1.7l1.2,11.5
					l-9.9,1.1c-0.4-5.5-0.8-10.6-1.3-15.3c-0.5-4.7-1.2-9.8-2-15.3l9.9-1.1l1.2,11.5l15.5-1.7L174,57.9L183.9,56.8z"/>
				<path class="st3" d="M199.7,78.2c10.7-1.2,18.4-2.2,23.2-3c-0.1,1.2-0.1,2.4,0,3.6s0.2,2.8,0.4,4.6L190.6,87
					c-0.4-5.5-0.8-10.6-1.3-15.3c-0.5-4.7-1.2-9.8-2-15.3l32.7-3.5l0.8,7.6L198,63l0.4,4c1.4-0.1,3.3-0.3,6-0.6
					c4.5-0.5,9.1-1.1,13.8-1.8l0.8,7.2c-4.8,0.3-9.4,0.8-13.9,1.2c-2.6,0.3-4.6,0.5-6,0.7L199.7,78.2z"/>
			</g>
		</g>
		<g class="st2">
			<path d="M70.7,49l0.6,4.8L69.9,54c-2.4,0.3-4.6-0.1-6.5-1.1c-1.1,0.9-2.3,1.7-3.7,2.3l-2.4-3.8c0.9-0.5,1.7-1,2.4-1.6
				c-1.8-2.2-3-5-3.4-8.4c-0.7-5.5,1.6-8.9,5.6-9.4c3.8-0.5,6.7,2,7.3,6.8c0.4,3.4-0.4,6.9-2.3,9.9c0.8,0.2,1.7,0.4,2.6,0.2L70.7,49
				z M61.5,40.6c0.2,1.9,0.8,3.6,1.7,5c0.9-1.9,1.3-3.9,1-6c-0.2-1.9-0.8-2.8-1.7-2.7C61.6,37.1,61.2,38.2,61.5,40.6z"/>
		</g>
		<g class="st2">
			<path d="M71.9,45.8c-0.6-4.7,2.6-8.7,7.5-9.3c4.8-0.6,8.9,2.5,9.5,7.2c0.6,4.7-2.6,8.7-7.5,9.3C76.5,53.6,72.4,50.5,71.9,45.8z
				 M83.7,44.4c-0.2-1.9-1.9-3.2-3.8-3c-1.9,0.2-3.2,1.9-3,3.8c0.2,1.9,1.9,3.2,3.8,3C82.7,47.9,83.9,46.3,83.7,44.4z"/>
			<path d="M108.1,41.3c0.6,4.7-2.2,8.6-6.5,9.1c-1.8,0.2-3.3-0.3-4.6-1.3l0.2,1.4l-5,0.6l-2.7-22.1l5-0.6l1,7.9
				c1-1.3,2.4-2.1,4.1-2.4C103.9,33.5,107.6,36.6,108.1,41.3z M103,42c-0.2-1.9-1.8-3.2-3.8-3c-1.9,0.2-3.2,1.9-3,3.8
				c0.2,1.9,1.9,3.2,3.8,3C102,45.5,103.2,43.9,103,42z"/>
			<path d="M128.5,41.9l0.6,4.8l-1.4,0.2c-2.2,0.3-3.8-0.2-4.8-1.6c-1,1.7-2.5,2.9-4.6,3.1c-4.3,0.5-7.9-2.6-8.5-7.3
				c-0.6-4.7,2.2-8.6,6.5-9.1c1.8-0.2,3.3,0.3,4.6,1.3l-0.2-1.4l5-0.6l1.2,9.7c0.1,0.8,0.5,1.1,1.3,1L128.5,41.9z M121.7,39.6
				c-0.2-1.9-1.9-3.2-3.8-3c-1.9,0.2-3.2,1.9-2.9,3.8c0.2,1.9,1.8,3.2,3.8,3C120.6,43.2,121.9,41.6,121.7,39.6z"/>
		</g>
		<g class="st2">
			<path d="M153.9,38.7l0.6,4.8l-1.4,0.2c-2.2,0.3-3.8-0.2-4.8-1.6c-1,1.7-2.5,2.9-4.6,3.1c-4.3,0.5-7.9-2.6-8.5-7.3
				c-0.6-4.7,2.2-8.6,6.5-9.1c1.8-0.2,3.3,0.3,4.6,1.3l-1-7.9l5-0.6l2,16.1c0.1,0.8,0.5,1.1,1.3,1L153.9,38.7z M147.1,36.5
				c-0.2-1.9-1.9-3.2-3.8-3s-3.2,1.9-2.9,3.8c0.2,1.9,1.8,3.2,3.8,3S147.3,38.4,147.1,36.5z"/>
		</g>
		<g class="st2">
			<path d="M171.8,35l-11.5,1.4c0.6,1.4,2,2.2,3.6,2c1.3-0.2,2.3-0.8,2.7-1.6l5.3-0.7c-0.7,3.4-3.7,6-7.6,6.5
				c-4.9,0.6-8.9-2.5-9.5-7.2c-0.6-4.7,2.6-8.7,7.4-9.3c4.9-0.6,8.9,2.5,9.5,7.2C171.8,33.9,171.8,34.5,171.8,35z M159.9,33.3
				l6.3-0.8c-0.6-1.4-2-2.2-3.5-2C161.3,30.7,160.2,31.8,159.9,33.3z"/>
		</g>
	</g>
</g>
</svg>
