<?xml version="1.0" encoding="utf-8"?>
<!-- Generator: Adobe Illustrator 27.0.0, SVG Export Plug-In . SVG Version: 6.00 Build 0)  -->
<svg version="1.1" id="Capa_2_00000070087484522652663840000017670468953788491966_"
	 xmlns="http://www.w3.org/2000/svg" xmlns:xlink="http://www.w3.org/1999/xlink" x="0px" y="0px" viewBox="0 0 254.1 93.3"
	 style="enable-background:new 0 0 254.1 93.3;" xml:space="preserve">
<style type="text/css">
	.st0{fill:#3C4693;}
	.st1{enable-background:new    ;}
	.st2{fill:#FFC600;}
</style>
<g id="Capa_1-2">
	<path class="st0" d="M209.9,0c-15,0-25.7,6-33.1,12.7C169.3,6,158.6,0,143.6,0S118,6,110.5,12.7C103,6,92.3,0,77.4,0
		S51.7,6,44.2,12.7C36.8,6,26.1,0,11.1,0c0,0-0.1,0-0.1,0C4.9,0,0,5.1,0,11.2C0,26,0,54.1,0,64.1c0,2.4,0.8,4.8,2.2,6.7
		c6.8,9,19.6,22.4,42,22.4c15,0,25.7-6,33.1-12.7c7.5,6.7,18.2,12.7,33.1,12.7s25.7-6,33.1-12.7c7.5,6.7,18.2,12.7,33.1,12.7
		s25.7-6,33.1-12.7c7.5,6.7,18.2,12.7,33.1,12.7h0.1c6,0,11-5,11-11V29.1c0-2.4-0.8-4.8-2.2-6.7C245.1,13.5,232.3,0,209.9,0z"/>
	<g class="st1">
		<path class="st2" d="M71.3,50.7c0-5.3,4.1-9.2,9.5-9.2c4.7,0,8.5,3.1,9.3,7.4l-5.4,0c-0.7-1.5-2.2-2.5-3.9-2.5
			c-2.5,0-4.3,1.9-4.3,4.4c0,2.5,1.8,4.4,4.3,4.4c1.8,0,3.3-1,4-2.5l5.4,0c-0.8,4.3-4.6,7.4-9.3,7.4C75.4,60,71.3,56,71.3,50.7z"/>
		<path class="st2" d="M92,50.7c0-5.3,4.1-9.2,9.5-9.2s9.5,4,9.5,9.3c0,5.3-4.1,9.2-9.5,9.2S92,56,92,50.7z M105.9,50.7
			c0-2.5-1.8-4.4-4.3-4.4c-2.5,0-4.3,1.9-4.3,4.4c0,2.5,1.8,4.4,4.3,4.4C104,55.1,105.9,53.2,105.9,50.7z"/>
	</g>
	<g class="st1">
		<path class="st2" d="M132.7,54.7l0,4.9l-1.4,0c-3.6,0-5.4-1.8-5.4-5.2l0-4.5c0-2.1-1.3-3.5-3.4-3.5c-2.2,0-3.7,1.4-3.7,3.6l0,9.6
			l-5.1,0l0-17.7l5.1,0l0,1.9c1.4-1.6,3.2-2.4,5.4-2.4c4.1,0,6.8,2.7,6.7,6.7l0,5.1c0,0.9,0.5,1.4,1.4,1.4H132.7z"/>
	</g>
	<g class="st1">
		<path class="st2" d="M134,50.8c0-5.3,4.1-9.2,9.5-9.2c4.7,0,8.5,3.1,9.3,7.4l-5.4,0c-0.7-1.5-2.2-2.5-3.9-2.5
			c-2.5,0-4.3,1.9-4.3,4.4c0,2.5,1.8,4.4,4.3,4.4c1.8,0,3.3-1,4-2.5l5.4,0c-0.8,4.3-4.6,7.4-9.3,7.4C138.1,60,134,56,134,50.8z"/>
	</g>
	<g class="st1">
		<path class="st2" d="M155.1,36.6c0-1.8,1.4-3.1,3.1-3.1c1.8,0,3.2,1.3,3.1,3.1c0,1.8-1.4,3.1-3.2,3.1
			C156.4,39.7,155.1,38.4,155.1,36.6z M155.7,41.9l5.1,0l0,17.7l-5.1,0L155.7,41.9z"/>
	</g>
	<g class="st1">
		<path class="st2" d="M182.3,52.8c0,4.3-2.7,7.3-7.3,7.3c-2.7,0-5-1-6.5-2.6l-0.9,2.2l-5.2,0l7.4-17.7l5.8,0
			C176,46.5,182.3,46.3,182.3,52.8z M177.1,52.7c0-2.1-3-2.9-4.6-5.4l-2.4,6c0.8,1.1,2.2,1.9,3.9,1.9
			C175.8,55.2,177.1,54.2,177.1,52.7z"/>
	</g>
</g>
</svg>
